<svg version="1.1" id="_x30_" xmlns="http://www.w3.org/2000/svg" xmlns:xlink="http://www.w3.org/1999/xlink" x="0px" y="0px" viewBox="0 0 600 204.914" style="width: 395px; height: 135px; background: black" xml:space="preserve">
<style type="text/css">
	.st0{fill:#040000;}
</style>
  <g>
	<path class="st0" d="M106.965,71.542c-6.579,1.833-13.14,3.815-19.824,5.169c-6.996,1.417-13.858,3.342-20.734,5.154
		c-9.793,2.581-19.624,4.878-29.612,6.505c-2.942,0.479-5.935,1.087-8.912,0.65c-2.208-0.324-4.389-0.3-6.589-0.317
		c-0.476-0.004-1.026-0.147-1.237,0.407c-0.198,0.519,0.15,0.979,0.569,1.212c1.513,0.839,2.093,1.912,1.897,3.776
		c-0.185,1.745,0.942,3.287,2.121,4.603c0.901,1.005,1.852,1.963,2.791,2.932c4.338,4.477,9.053,8.361,15.349,9.771
		c0.555,0.124,1.114,0.347,1.601,0.64c2.244,1.352,4.696,1.068,7.03,0.65c3.912-0.701,7.387-2.609,10.785-4.601
		c3.888-2.279,7.29-5.262,11.122-7.648c4.429-2.759,9.01-5.138,13.875-6.993c1.711-0.653,3.377-1.328,4.684-2.733
		c0.707-0.759,1.616-1.44,2.566-1.842c4.435-1.874,8.9-3.677,13.388-5.422c1.904-0.74,2.605-0.317,2.637,1.63
		c0.096,5.767-0.006,11.538,0.149,17.302c0.067,2.502-1.109,3.685-3.299,4.365c-3.866,1.2-7.715,2.454-11.554,3.74
		c-1.363,0.456-2.705,0.808-4.254,0.59c2.466-3.034,1.575-6.503,1.631-9.815c0.011-0.654-0.059-1.428-0.883-1.632
		c-0.645-0.16-1.029,0.391-1.473,0.75c-2.847,2.299-4.745,5.531-7.651,7.776c-0.553,0.427-0.642,1.168-0.856,1.806
		c-0.214,0.636-0.288,1.388-0.682,1.883c-2.161,2.714-2.059,5.608-1.099,8.743c1.2,3.92,3.708,5.445,7.7,4.391
		c0.922-0.243,1.834-0.493,2.777-0.682c4.393-0.88,8.944-0.931,13.127-2.952c3.541-1.711,3.953-1.257,3.713,2.688
		c-0.128,2.102-0.82,3.706-2.898,4.569c-0.783,0.325-1.447,0.906-2.285,1.2c-1.222,0.429-1.511,1.792-1.718,2.725
		c-0.23,1.036,1.084,1.267,2.037,1.573c1.143,0.367,2.308,0.61,3.232,1.697c1.676,1.971,4.212,1.356,5.2-1.072
		c0.363-0.892,0.543-1.903,1.078-2.671c1.261-1.81,1.39-3.79,1.06-5.816c-0.3-1.844-0.02-3.653-0.003-5.478
		c0.015-1.62,0.833-2.59,2.331-2.829c1.447-0.231,2.759-0.893,4.175-1.129c1.058-0.177,2.47-1.461,3.116-0.219
		c0.582,1.119-0.411,2.57-1.257,3.633c-0.336,0.422-0.913,0.698-1.433,0.918c-0.846,0.357-1.512,0.871-1.823,1.74
		c-0.32,0.894-0.992,1.285-1.807,1.708c-2.38,1.235-3.411,4.588-1.954,6.827c2.776,4.268,5.615,8.484,10.443,10.865
		c1.928,0.951,3.564,1.346,5.379-0.415c1.241,1.409,1.914,2.74,2.379,4.252c1.205,3.913,1.791,7.802,1.23,11.951
		c-0.739,5.47-1.759,10.814-3.95,15.909c-1.517,3.528-4.015,6.31-6.626,9.011c-0.81,0.838-1.85,1.359-3.039,1.568
		c-1.231,0.216-2.492,0.389-3.658,0.809c-1.447,0.521-2.646,0.184-3.807-0.627c-2.451-1.711-5.017-3.286-7.297-5.202
		c-2.324-1.952-5.048-3.637-6.175-6.703c-0.866-2.352-2.581-4.298-3.172-6.781c-0.106-0.447-0.379-1.079-0.728-1.206
		c-1.724-0.628-2.217-2.314-3.283-3.503c-0.563-0.628-1.411-2.174-2.131,0.012c-0.147,0.446-0.665,0.187-1.014,0.086
		c-1.096-0.317-1.351,0.256-1.385,1.203c-0.012,0.315,0.532,1.258-0.29,0.911c-1.303-0.549-1.374,0.052-1.249,0.945
		c0.133,0.948-0.145,1.403-0.91,2.108c-2.839,2.618-2.157,5.459,1.379,6.984c2.279,0.983,3.871,2.769,5.216,4.835
		c1.915,2.942,3.049,6.238,4.082,9.512c1.835,5.813,7.356,9.902,13.242,9.14c2.722-0.352,5.292-0.141,7.888,0.687
		c1.498,0.478,3.412,0.438,4.456-0.374c1.797-1.396,3.919-2.008,5.773-3.188c2.09-1.329,4.431-2.309,6.693-3.192
		c3.204-1.251,5.64-3.148,7.655-5.797c2.39-3.142,3.304-6.948,4.484-10.567c1.817-5.572,3.403-11.227,3.657-17.184
		c0.203-4.76-1.314-9.114-2.602-13.536c-1.706-5.861-5.476-10.068-10.752-13.024c-1.596-0.894-3.19-1.823-4.653-2.912
		c-2.607-1.94-2.619-2.309-0.977-5.144c0.432-0.747,0.721-1.601,1.256-2.26c2.468-3.042,2.72-6.488,1.911-10.112
		c-0.925-4.145-4.49-7.221-8.717-7.564c-2.599-0.211-5.193,0.065-7.783,0.257c-1.792,0.133-2.144-0.107-1.473-1.577
		c1.201-2.629,1.817-5.364,2.37-8.182c0.833-4.243,3.096-8.064,3.945-12.336c0.318-1.6,1.306-2.841,2.937-3.296
		c1.941-0.541,3.8-1.321,5.793-1.722c4.827-0.973,9.73-1.333,14.588-2.006c8.11-1.123,16.119-0.933,24.197,0.053
		c2.514,0.307,4.906,0.991,7.349,1.511c1.844,0.393,2.538,1.395,2.131,3.139c-0.787,3.372-1.525,6.804-3.326,9.816
		c-2.511,4.199-6.178,7.319-9.958,10.332c-1.983,1.581-3.853,1.751-6.107,0.524c-1.935-1.053-4.045-1.815-6.213-2.329
		c-0.669-0.159-1.751-0.186-1.611,0.586c0.341,1.871-1.077,2.418-2.139,3.17c0.72,1.062,1.271,1.969,1.917,2.801
		c0.69,0.887,0.928,1.841,0.926,2.956c-0.002,1.422-1.764,0.556-2.006,1.755c0.579,0.419,1.447,0.729,1.742,1.324
		c0.719,1.452,1.885,1.756,3.293,1.819c1.289,0.057,2.51,0.355,3.285,1.51c0.594,0.885,1.435,0.721,2.311,0.767
		c3.165,0.168,6.111-1.099,9.193-1.5c3.687-0.48,6.857-3.171,9.927-5.422c0.945-0.693,1.758-1.771,2.162-3.018
		c0.824-2.546,2.875-4.288,4.322-6.426c0.589-0.871,1.431-1.471,2.718-1.195c1.587,0.34,3.157-0.859,4.828-0.154
		c0.563,0.238,1.067-0.304,1.464-0.74c0.455-0.499,0.886-1.019,1.351-1.509c1.717-1.81,1.712-1.789,3.859-0.65
		c1.105,0.586,2.217,1.203,3.488,1.347c2.135,0.241,3.296-1.236,2.561-3.247c-0.24-0.659-0.937-1.175-0.741-2.098
		c1.281,0.587,2.382,1.213,3.56,1.607c2.584,0.866,5.732-0.986,5.83-3.618c0.128-3.415-0.473-6.899-3.187-9.176
		c-1.917-1.608-3.481-3.489-5.284-5.148c-3.073-2.827-7.057-4.249-10.685-6.193c-2.424-1.299-5.451-1.12-7.798-2.802
		c-0.278-0.199-0.752-0.211-1.125-0.181c-5.892,0.471-11.733-0.847-17.619-0.482c-1.25,0.077-2.494,0.186-3.737-0.088
		c-1.373-0.302-2.626-0.363-3.594,1.029c-0.445,0.64-1.762,0.981-1.957,0.209c-0.623-2.459-1.917-1.257-3.652-0.956
		c1.082,0.655,1.826,1.28,1.416,2.056c-0.508,0.964-1.307,0.174-2.005,0.005c-2.025-0.492-3.976-1.03-6.186-0.696
		c-2.429,0.367-4.914,1.693-7.528,0.257c0.899-0.876,2.59,0.287,3.349-1.44c-3.91-0.346-7.558,0.278-11.186,0.666
		c-3.534,0.377-7.088,0.825-10.52,1.863c-0.582,0.176-1.177,0.281-1.433-0.465c-0.626-1.82-1.698-3.647-1.716-5.479
		c-0.029-2.946-1.59-4.871-3.34-6.779c-0.919-1.002-1.711-1.976-2.006-3.4c0.794-0.313,1.402-0.6,2.038-0.794
		c4.783-1.463,9.681-2.517,14.395-4.237c2.721-0.993,5.496-1.509,8.408-0.226c3.128,1.379,6.547,0.937,9.839,0.817
		c1.427-0.052,2.763-1.192,4.368-0.858c0.199,0.041,0.572-0.218,0.695-0.435c0.716-1.263,1.536-2.432,2.587-3.449
		c0.448-0.433,0.349-1.024,0.226-1.628c-0.726-3.568-1.44-7.127-4.878-9.263c-0.079-0.049-0.142-0.133-0.195-0.212
		c-1.425-2.126-3.543-3.235-5.915-3.878c-1.574-0.427-3.195-0.703-4.81-0.948c-0.781-0.119-1.769-0.164-2.139-0.725
		c-1.568-2.374-3.811-2.527-6.285-2.307c-0.549,0.049-1.132-0.21-1.69-0.361c-2.091-0.566-4.338-0.361-6.352-1.348
		c-0.624-0.306-1.288,0.126-1.937,0.234c-2.122,0.354-3.783,1.82-5.809,2.296c-3.94,0.924-7.871,1.864-11.751,3.025
		c-1.361,0.407-2.711,1.07-4.219,0.591c-0.622-0.198-1.141,0.064-1.51,0.576c-0.625,0.867-1.601,0.998-2.522,1.27
		c-4.068,1.202-8.309,1.534-12.428,2.585c-4.932,1.259-9.691,3.262-14.833,3.703c-1.407,0.121-2.705,0.747-3.216,2.128
		c-0.445,1.202-1.25,1.989-2.485,2.694c3.578,1.878,6.069,4.567,7.906,7.667c1.07,1.806,2.24,3.037,4.136,3.707
		c3.391,1.198,6.529,2.928,9.336,5.122c1.641,1.282,3.639,1.681,5.298,2.809c0.418,0.285,0.923,0.263,1.376,0.007
		c3.151-1.783,6.902-1.704,10.132-3.262c0.547-0.264,1.142-0.796,1.942-0.33c0.877,4.188,2.57,8.207,3.221,12.515
		C109.873,70.535,109.975,70.703,106.965,71.542z M140.372,65.373c-1.996,1.117-4.193,1.159-6.378,1.073
		C136.046,65.472,138.252,65.725,140.372,65.373z" style="fill: rgb(255, 255, 255);"></path>
    <path class="st0" d="M258.226,164.095c-2.204,1.348-3.57,3.363-4.849,5.522c-1.461,2.466-1.368,4.969,0.313,7.224
		c0.996,1.336,2.149,2.577,2.958,4.024c0.933,1.668,2.642,2.21,3.932,3.34c0.61,0.534,1.499,0.353,1.965-0.361
		c0.72-1.104,2.056-1.488,2.75-2.428c1.194-1.62,3.005-2.762,3.528-4.943c0.438-1.828,1.589-3.225,2.819-4.651
		c4.067-4.718,8.284-9.345,10.97-15.146c1.514-3.269,3.007-6.574,3.93-10.049c0.754-2.839,1.685-5.612,2.617-8.37
		c0.939-2.777,2.221-5.43,2.971-8.296c0.317-1.211,0.902-2.346,1.351-3.521c0.4-1.047,0.91-1.452,2.035-0.791
		c0.722,0.424,1.519,0.979,2.481,0.84c-0.105-2.138-0.093-2.091,1.673-2.557c1.611-0.425,3.206-0.632,4.845-0.232
		c0.647,0.158,1.36,0.266,1.92-0.112c1.422-0.96,3.006-1.226,4.638-1.468c0.996-0.147,2.137-0.792,2.281-1.697
		c0.19-1.189,0.54-2.323,0.733-3.496c0.027-0.165-0.444-0.598-0.689-0.601c-1.592-0.024-2.929-1.048-4.498-1.144
		c-3.199-0.195-6.288-1.105-9.391-1.805c-1.057-0.238-1.776,0.196-2.517,0.385c-0.986-2.211,0.055-4.139,0.33-6.092
		c0.69-4.888,0.461-9.875,1.574-14.713c0.521-2.267,0.859-4.571,1.956-6.674c0.526-1.009,1.493-1.654,1.866-2.77
		c0.616-1.847,1.293-3.66,2.61-5.153c0.823-0.932,1.588-1.943,2.244-3.006c2.896-4.689,6.294-8.997,9.483-13.464
		c0.538-0.753,1.109-1.495,2.227-1.118c1.132,0.382,1.409,1.216,1.439,2.347c0.042,1.535-0.289,3.024-0.366,4.54
		c-0.334,6.58-1.507,13.07-1.962,19.639c-0.275,3.955-0.752,7.896-0.999,11.853c-0.373,5.983,0.009,11.985-0.465,17.979
		c-0.5,6.324,0.311,12.652,0.374,18.983c0.013,1.346,0.204,2.69,0.314,4.035c0.101,1.225,0.339,2.454,0.035,3.65
		c-0.79,0.102-1.166-0.477-1.707-0.634c-3.055-0.89-6.076-1.959-9.178-2.61c-2.041-0.428-4.236-0.536-6.298-0.267
		c-2.051,0.267-3.795,1.777-5.868,2.262c-0.501,0.117-0.932,0.595-0.674,1.384c0.781,2.389,2.137,4.311,4.239,5.59
		c0.862,0.524,1.523,1.194,2.231,1.902c1.362,1.363,2.773,3.014,5.06,1.789c0.373-0.2,0.785-0.186,1.198-0.093
		c2.098,0.472,4.11,0.269,6.25-0.153c2.008-0.396,3.971-0.53,5.443-2.101c0.494,0.457,0.441,0.895,0.459,1.301
		c0.155,3.54,0.269,7.083,0.464,10.621c0.092,1.666-0.019,3.398,1.004,4.876c0.133,0.192,0.272,0.52,0.202,0.7
		c-1.095,2.843-0.205,5.628,0.157,8.437c0.1,0.777,0.351,1.677-0.463,2.429c-2.246-1.396-3.648-3.799-6.128-5.457
		c0.037,1.662,0.485,2.625,1.091,3.548c1.58,2.403,1.989,4.867,0.676,7.617c-0.518,1.084-1.167,2.204-1.064,3.574
		c0.325,4.34,1.252,8.399,3.926,11.964c0.888,1.184,1.727,1.783,3.033,1.493c1.442-0.321,2.728,0.059,4.039,0.544
		c2.237,0.828,3.465,0.243,4.213-2.091c0.174-0.545,0.431-0.808,0.884-1.076c2.085-1.231,2.464-1.943,1.912-4.254
		c-0.548-2.291-0.733-4.492-0.263-6.869c0.658-3.325,0.294-6.732-0.045-10.095c-0.195-1.935-0.654-3.934-0.037-5.78
		c0.619-1.853,0.958-3.695,1.071-5.624c0.202-3.458,0.261-6.902-0.109-10.363c-0.734-6.878-1.567-13.753-1.574-20.69
		c-0.007-7.182-0.061-14.364,0.023-21.545c0.045-3.796,0.183-7.605,0.567-11.377c0.447-4.403,2.641-8.285,3.952-12.436
		c0.335-1.059,1.26-1.722,2.28-2.186c1.13-0.514,2.298-1.101,2.876-2.273c1.106-2.243,2.241-4.512,3.136-6.814
		c1.835-4.722,1.075-9.457-1.557-13.718c-1.191-1.928-2.304-3.872-3.227-5.938c-0.819-1.832-2.044-3.232-3.804-4.138
		c-2.22-1.142-3.715-3.3-5.894-4.509c-0.388-0.215-0.546-0.618-0.357-1.085c0.14-0.346,0.401-0.554,0.76-0.485
		c1.717,0.333,1.359-0.612,0.877-1.55c-0.304-0.589-0.689-1.146-1.105-1.659c-0.796-0.982-1.525-2.024-1.883-3.24
		c-0.482-1.636-1.553-2.273-3.089-2.229c-0.411,0.012-0.808,0.187-1.108-0.229c-1.751-2.424-4.538-2.815-7.015-3.817
		c-0.83-0.336-1.423-0.141-1.781,0.735c-0.532,1.301-1.614,2.108-2.596,2.991c-4.022,3.616-7.333,7.941-11.086,11.825
		c-0.628,0.65-1.122,1.455-1.603,2.238c-4.719,7.681-8.098,15.993-10.729,24.638c-1.421,4.671-2.332,9.48-3.404,14.246
		c-1.388,6.165-2.897,12.292-4.756,18.344c-2.723,8.865-5.95,17.509-9.594,25.996c-3.446,8.029-7.441,15.778-11.486,23.497
		C259.62,162.05,259.261,163.462,258.226,164.095z" style="fill: rgb(255, 255, 255);"></path>
    <path class="st0" d="M93.104,159.465c2.733,0.596,5.346,1.639,7.781,2.993c4.104,2.284,8.026,4.93,12.812,5.672
		c0.551,0.085,1.071,0.398,1.592,0.637c1.867,0.853,4.866,0.291,5.924-1.377c1.233-1.945,2.129-4.083,2.225-6.444
		c0.135-2.106-0.548-3.911-2.376-4.943c-2.246-1.269-4.448-2.685-7.026-3.279c-1.221-0.281-2.489-0.603-3.442-1.422
		c-1.24-1.066-2.391-1.799-4.099-1c-0.793,0.37-1.727,0.009-2.532-0.297c-4.973-1.889-9.636-0.483-14.277,1.276
		c-1.227,0.465-2.036,1.426-2.866,2.357c-0.53,0.594-0.548,1.329,0.08,1.786C88.893,156.875,90.492,158.896,93.104,159.465z" style="fill: rgb(255, 255, 255);"></path>
    <path class="st0" d="M483.959,83.839c-5.57,5.151-11.302,10.137-16.683,15.477c-8.845,8.777-19.002,15.851-29.222,22.813
		c-4.256,2.899-8.882,5.314-13.374,7.883c-5.406,3.092-11.027,5.808-16.553,8.689c-1.631,0.85-1.997,1.727-1.33,3.157
		c0.543,1.165,1.236,1.307,2.911,0.543c5.425-2.473,11.048-4.397,16.794-5.948c2.98-0.804,5.776-1.962,8.522-3.354
		c1.226-0.621,2.472-1.438,4.107-1.528c0.229,2.339-0.338,4.491-0.665,6.613c-0.963,6.258-2.399,12.44-2.904,18.775
		c-0.304,3.812-1.012,7.623,1.31,11.131c0.41,0.619,0.433,1.481,0.777,2.159c1.366,2.699,1.772,6.251,5.846,6.605
		c0.455,0.04,0.861,0.258,1.338,0.028c2.587-1.248,5.803-1.704,6.522-5.276c0.051-0.251,0.291-0.561,0.522-0.662
		c2.654-1.161,2.535-3.55,2.717-5.867c0.294-3.73,0.36-7.481,0.99-11.184c0.992-5.825,2.707-11.553,1.775-17.605
		c-0.616-3.999-1.301-7.801-5.531-9.67c-0.345-0.153-0.628-0.442-0.954-0.644c-0.479-0.296-1.15-0.492-0.98-1.224
		c0.149-0.64,0.794-0.797,1.343-0.93c1.532-0.37,2.872-1.137,4.085-2.08c5.3-4.121,10.52-8.345,15.852-12.424
		c3.988-3.051,7.376-6.714,10.806-10.323c2.998-3.154,6.542-5.632,9.789-8.472c3.364-2.942,6.056-6.751,10.552-8.256
		c0.247-0.083,0.401-0.413,0.635-0.575c3.214-2.223,5.323-5.482,7.824-8.37c1.037-1.197,2.069-2.295,3.838-2.131
		c1.067,0.099,1.891-0.315,2.381-1.267c0.42-0.815,1.199-1.231,1.848-1.787c1.834-1.573,2.002-2.192,0.123-3.801
		c-1.493-1.278-2.266-2.782-2.752-4.568c-0.202-0.741-0.429-1.484-0.997-2.049c-1.483-1.473-7.529-2.484-9.28-1.348
		c-3.05,1.978-6.523,3.233-9.363,5.559c-0.44,0.36-0.952,0.793-1.476,0.866c-3.761,0.527-7.106,2.311-10.669,3.423
		c-5.213,1.628-10.487,3.059-15.696,4.698c-4.117,1.296-8.117,2.984-12.269,4.139c-11.733,3.265-23.432,6.639-35.061,10.256
		c-1.361,0.423-2.908,1.093-3.486,2.31c-0.48,1.009,1.004,1.953,1.66,2.809c2.379,3.104,4.634,6.451,8.639,7.738
		c1.751,0.562,3.431,1.285,4.974,2.235c1.751,1.078,3.605,1.058,5.242,0.291c1.196-0.561,1.897-0.816,2.97,0.12
		c0.825,0.72,6.534-0.504,7.193-1.37c0.169-0.222,0.323-0.5,0.361-0.77c0.317-2.289,1.951-3.156,3.915-3.68
		c3.564-0.95,6.797-2.577,9.869-4.611c4.927-3.262,10.185-5.738,16.166-6.379c2.158-0.231,4.291-0.623,6.284-2.09
		C485.034,83.024,484.439,83.395,483.959,83.839z" style="fill: rgb(255, 255, 255);"></path>
    <path class="st0" d="M562.639,101.257c-0.442,1.267-0.813,2.559-1.205,3.844c-1.298,4.253-2.15,8.601-1.765,13.047
		c0.511,5.913,0.921,11.842,2.16,17.681c0.542,2.556,1.194,5.031,2.269,7.413c2.493,5.524,1.745,10.899-1.179,15.976
		c-2.488,4.319-6.457,7.047-10.937,9.023c-5.205,2.296-10.622,3.867-16.242,4.857c-5.398,0.951-10.737,2.262-15.444,1.293
		c-2.65-0.193-4.473-0.317-6.294-0.461c-0.863-0.068-1.831-0.036-2.502-0.575c-3.098-2.488-6.844-3.882-10.099-6.102
		c-1.372-0.936-2.546-1.998-3.457-3.406c-2.656-4.105-3.764-8.801-5.114-13.389c-0.506-1.718-1.197-3.464-0.909-5.36
		c0.218-1.433-0.033-2.867-0.101-4.304c-0.227-4.725,0.218-9.401,1.498-13.979c0.17-0.607,0.498-1.07,1.065-1.27
		c2.08-0.733,4.063-1.965,6.261-2.084c2.698-0.146,5.04-1.092,7.366-2.263c1.284-0.646,2.542-1.306,4.016-1.513
		c5.226-0.734,8.316-4.407,11.176-8.331c0.496-0.68,1.044-1.687,0.196-2.347c-1.705-1.327-3.101-3.279-5.594-3.25
		c-0.801,0.009-1.455-0.265-2.161-0.63c-2.272-1.172-5.617-0.179-6.557,2.112c-0.789,1.923-2.18,3.214-3.8,4.189
		c-3.367,2.026-6.839,3.885-10.33,5.693c-1.889,0.978-2.293,0.732-2.589-1.375c-0.242-1.717-0.822-3.16-2.371-4.061
		c-4.026-2.343-8.264-3.965-13.029-3.734c-1.516,0.074-1.769,0.412-0.753,1.627c1.701,2.034,1.87,4.08,0.784,6.404
		c-0.829,1.774-0.688,3.769-1.109,5.624c-0.81,3.575-0.874,7.243-1.647,10.821c-0.882,4.083-0.955,8.276,0.008,12.319
		c1.929,8.1,5.231,15.646,9.983,22.528c1.925,2.787,4.428,4.775,7.662,5.796c0.654,0.207,1.288,0.42,1.786,0.889
		c1.49,1.404,3.363,2.234,5.094,3.234c1.8,1.04,3.705,2.217,5.873,2.2c3.55-0.028,6.766,1.258,10.073,2.208
		c4.328,1.242,8.537,2.933,13.192,2.714c4.016-0.189,8.044,0.062,12.069-0.158c1.78-0.098,3.369-0.429,4.903-1.382
		c4.161-2.584,8.463-4.793,13.338-5.887c2.189-0.491,4.67-0.955,6.372-2.527c1.966-1.815,4.32-2.794,6.581-4.019
		c1.732-0.939,3.144-2.171,3.809-4.131c0.985-2.903,2.489-5.584,3.706-8.378c1.292-2.964,1.769-6.147,0.782-9.507
		c-1.043-3.55-1.634-7.204-2.903-10.736c-0.754-2.099-1.489-4.091-2.778-5.887c-0.452-0.63-0.843-1.288-1.016-2.053
		c-0.824-3.629-2.228-7.024-3.62-10.478c-2.139-5.308-3.53-10.951-2.451-16.837c0.103-0.565,0.192-1.153,0.149-1.719
		c-0.068-0.903,0.41-2.143-0.735-2.553c-1.168-0.419-1.963,0.542-2.59,1.405C563.142,99.999,562.858,100.63,562.639,101.257z" style="fill: rgb(255, 255, 255);"></path>
    <path class="st0" d="M510.226,36.808c-4.09,6.076-9.007,11.443-14.19,16.585c-0.716,0.711-1.758,1.237-1.512,3.144
		c1.258-1.04,2.224-1.789,3.134-2.602c3.863-3.452,7.721-6.853,12.82-8.497c4.609-1.486,9.019-3.775,14.117-2.785
		c0.941,0.183,1.855-0.085,2.772-0.514c2.857-1.339,5.021-3.399,6.852-5.927c0.828-1.142,0.852-2.32,0.044-3.157
		c-1.44-1.491-2.686-3.341-4.838-3.942c-2.156-0.602-4.133-1.579-5.934-2.848c-1.758-1.239-3.51-2.195-5.752-1.77
		c-0.83,0.157-1.439-0.421-2.102-0.793c-0.638-0.358-1.035-1.168-1.898-1.063c-0.306,0.233-0.325,0.53-0.228,0.803
		c1.172,3.289,0.652,6.363-0.985,9.385C511.796,34.179,511.084,35.533,510.226,36.808z" style="fill: rgb(255, 255, 255);"></path>
    <path class="st0" d="M466.09,68.58c4.541-1.66,6.043-5.518,7.747-9.328c0.419-0.938,0.455-2.044,0.698-3.066
		c0.341-1.432,0.142-2.622-1.207-3.506c-0.793-0.519-1.557-1.139-2.184-1.847c-2.135-2.41-5.441-2.543-7.976-4.171
		c-0.342-0.22-1.003-0.222-1.39-0.046c-1.353,0.614-2.61,0.249-3.893-0.163c-0.731-0.235-1.594-0.593-2.186,0.019
		c-1.329,1.374-2.445,2.921-2.859,4.814c0.533,2.103,0.284,4.197,0.871,6.285c0.65,2.314,1.842,4.373,2.523,6.673
		C457.033,66.94,462.109,70.036,466.09,68.58z" style="fill: rgb(255, 255, 255);"></path>
</g>
</svg>
