<svg width="223" height="24" viewBox="0 0 223 24" fill="none" xmlns="http://www.w3.org/2000/svg">
  <path d="M21.336 15.896C21.144 17.4533 20.6107 18.7867 19.736 19.896C18.8827 21.0053 17.7627 21.8587 16.376 22.456C14.9893 23.0533 13.4107 23.352 11.64 23.352C10.04 23.352 8.568 23.1067 7.224 22.616C5.90133 22.1253 4.74933 21.4213 3.768 20.504C2.78667 19.5867 2.01867 18.4667 1.464 17.144C0.909333 15.8 0.632 14.296 0.632 12.632C0.632 10.9467 0.909333 9.44267 1.464 8.12C2.01867 6.79733 2.78667 5.67733 3.768 4.76C4.74933 3.82133 5.90133 3.10667 7.224 2.616C8.568 2.12533 10.04 1.88 11.64 1.88C13.432 1.88 15.0213 2.18933 16.408 2.808C17.7947 3.40533 18.9147 4.26933 19.768 5.4C20.6427 6.50933 21.176 7.84267 21.368 9.4H18.424C18.1467 8.39733 17.688 7.544 17.048 6.84C16.408 6.136 15.6293 5.60267 14.712 5.24C13.7947 4.856 12.7707 4.664 11.64 4.664C10.1893 4.664 8.86667 4.97333 7.672 5.592C6.47733 6.21067 5.51733 7.10667 4.792 8.28C4.088 9.45333 3.736 10.904 3.736 12.632C3.736 14.3387 4.088 15.7893 4.792 16.984C5.51733 18.1573 6.47733 19.0533 7.672 19.672C8.86667 20.2693 10.1893 20.568 11.64 20.568C12.7707 20.568 13.784 20.3867 14.68 20.024C15.5973 19.6613 16.376 19.128 17.016 18.424C17.656 17.72 18.1253 16.8773 18.424 15.896H21.336ZM32.408 23.352C30.8507 23.352 29.4213 23.0213 28.12 22.36C26.8187 21.6987 25.784 20.7493 25.016 19.512C24.248 18.2747 23.864 16.792 23.864 15.064C23.864 13.3147 24.248 11.8213 25.016 10.584C25.784 9.32533 26.8187 8.36533 28.12 7.704C29.4213 7.04267 30.8507 6.712 32.408 6.712C33.9653 6.712 35.384 7.04267 36.664 7.704C37.944 8.36533 38.968 9.32533 39.736 10.584C40.504 11.8213 40.888 13.3147 40.888 15.064C40.888 16.792 40.504 18.2747 39.736 19.512C38.968 20.7493 37.944 21.6987 36.664 22.36C35.384 23.0213 33.9653 23.352 32.408 23.352ZM32.408 20.696C33.368 20.696 34.2533 20.4827 35.064 20.056C35.896 19.608 36.5573 18.968 37.048 18.136C37.56 17.2827 37.816 16.2587 37.816 15.064C37.816 13.848 37.56 12.8133 37.048 11.96C36.5573 11.1067 35.896 10.456 35.064 10.008C34.2533 9.56 33.368 9.336 32.408 9.336C31.448 9.336 30.552 9.56 29.72 10.008C28.888 10.4347 28.216 11.0747 27.704 11.928C27.192 12.7813 26.936 13.8267 26.936 15.064C26.936 16.2587 27.1813 17.2827 27.672 18.136C28.184 18.968 28.856 19.608 29.688 20.056C30.52 20.4827 31.4267 20.696 32.408 20.696ZM43.7823 7.032H46.8543V23H43.7823V7.032ZM52.9343 6.712C53.8303 6.712 54.6409 6.84 55.3663 7.096C56.0916 7.352 56.7103 7.736 57.2223 8.248C57.7343 8.73867 58.1289 9.35733 58.4063 10.104C58.7049 10.8293 58.8543 11.6613 58.8543 12.6V23H55.8143V13.272C55.8143 12.0133 55.5049 11.0747 54.8863 10.456C54.2889 9.816 53.3716 9.496 52.1343 9.496C51.1743 9.496 50.2996 9.72 49.5103 10.168C48.7209 10.616 48.0703 11.2133 47.5583 11.96C47.0676 12.6853 46.7689 13.5067 46.6623 14.424L46.6303 12.664C46.7369 11.8107 46.9609 11.0213 47.3023 10.296C47.6649 9.57067 48.1129 8.94133 48.6463 8.408C49.2009 7.85333 49.8409 7.43733 50.5663 7.16C51.2916 6.86133 52.0809 6.712 52.9343 6.712ZM64.6463 6.712C65.5423 6.712 66.3529 6.84 67.0783 7.096C67.8036 7.352 68.4223 7.736 68.9343 8.248C69.4463 8.73867 69.8409 9.35733 70.1183 10.104C70.4169 10.8293 70.5663 11.6613 70.5663 12.6V23H67.5263V13.272C67.5263 12.0133 67.2169 11.0747 66.5983 10.456C66.0009 9.816 65.0836 9.496 63.8463 9.496C62.8863 9.496 62.0116 9.72 61.2223 10.168C60.4329 10.616 59.7823 11.2133 59.2703 11.96C58.7796 12.6853 58.4809 13.5067 58.3743 14.424L58.3423 12.632C58.4489 11.7787 58.6729 11 59.0143 10.296C59.3769 9.57067 59.8356 8.94133 60.3903 8.408C60.9449 7.85333 61.5849 7.43733 62.3103 7.16C63.0356 6.86133 63.8143 6.712 64.6463 6.712ZM74.2748 7.032H77.3468V23H74.2748V7.032ZM83.4268 6.712C84.3228 6.712 85.1334 6.84 85.8588 7.096C86.5841 7.352 87.2028 7.736 87.7148 8.248C88.2268 8.73867 88.6214 9.35733 88.8988 10.104C89.1974 10.8293 89.3468 11.6613 89.3468 12.6V23H86.3068V13.272C86.3068 12.0133 85.9974 11.0747 85.3788 10.456C84.7814 9.816 83.8641 9.496 82.6268 9.496C81.6668 9.496 80.7921 9.72 80.0028 10.168C79.2134 10.616 78.5628 11.2133 78.0508 11.96C77.5601 12.6853 77.2614 13.5067 77.1548 14.424L77.1228 12.664C77.2294 11.8107 77.4534 11.0213 77.7948 10.296C78.1574 9.57067 78.6054 8.94133 79.1388 8.408C79.6934 7.85333 80.3334 7.43733 81.0588 7.16C81.7841 6.86133 82.5734 6.712 83.4268 6.712ZM95.1388 6.712C96.0348 6.712 96.8454 6.84 97.5708 7.096C98.2961 7.352 98.9148 7.736 99.4268 8.248C99.9388 8.73867 100.333 9.35733 100.611 10.104C100.909 10.8293 101.059 11.6613 101.059 12.6V23H98.0188V13.272C98.0188 12.0133 97.7094 11.0747 97.0908 10.456C96.4934 9.816 95.5761 9.496 94.3388 9.496C93.3788 9.496 92.5041 9.72 91.7148 10.168C90.9254 10.616 90.2748 11.2133 89.7628 11.96C89.2721 12.6853 88.9734 13.5067 88.8668 14.424L88.8348 12.632C88.9414 11.7787 89.1654 11 89.5068 10.296C89.8694 9.57067 90.3281 8.94133 90.8828 8.408C91.4374 7.85333 92.0774 7.43733 92.8028 7.16C93.5281 6.86133 94.3068 6.712 95.1388 6.712ZM119.839 23H116.799V7.032H119.839V23ZM116.959 15.48L116.991 16.44C116.97 16.7173 116.895 17.1333 116.767 17.688C116.661 18.2213 116.469 18.808 116.191 19.448C115.935 20.088 115.573 20.7067 115.103 21.304C114.655 21.9013 114.079 22.392 113.375 22.776C112.671 23.16 111.818 23.352 110.815 23.352C110.133 23.352 109.429 23.256 108.703 23.064C107.999 22.872 107.349 22.552 106.751 22.104C106.154 21.656 105.674 21.048 105.311 20.28C104.949 19.4907 104.767 18.5093 104.767 17.336V7.032H107.839V16.696C107.839 17.6773 107.989 18.4453 108.287 19C108.607 19.5547 109.055 19.9493 109.631 20.184C110.207 20.4187 110.858 20.536 111.583 20.536C112.693 20.536 113.621 20.2693 114.367 19.736C115.135 19.1813 115.733 18.52 116.159 17.752C116.586 16.9627 116.853 16.2053 116.959 15.48ZM122.421 7.032H132.757V9.688H122.421V7.032ZM126.069 2.808H129.109V23H126.069V2.808ZM135.346 7.032H138.418V23H135.346V7.032ZM143.826 9.752C142.717 9.752 141.767 10.008 140.978 10.52C140.21 11.032 139.591 11.6613 139.122 12.408C138.674 13.1547 138.375 13.8693 138.226 14.552L138.194 12.728C138.215 12.5147 138.269 12.184 138.354 11.736C138.461 11.2667 138.642 10.744 138.898 10.168C139.154 9.592 139.495 9.048 139.922 8.536C140.349 8.00267 140.882 7.56533 141.522 7.224C142.162 6.88267 142.93 6.712 143.826 6.712V9.752ZM153.988 23.352C152.431 23.352 151.001 23.0213 149.7 22.36C148.399 21.6987 147.364 20.7493 146.596 19.512C145.828 18.2747 145.444 16.792 145.444 15.064C145.444 13.3147 145.828 11.8213 146.596 10.584C147.364 9.32533 148.399 8.36533 149.7 7.704C151.001 7.04267 152.431 6.712 153.988 6.712C155.545 6.712 156.964 7.04267 158.244 7.704C159.524 8.36533 160.548 9.32533 161.316 10.584C162.084 11.8213 162.468 13.3147 162.468 15.064C162.468 16.792 162.084 18.2747 161.316 19.512C160.548 20.7493 159.524 21.6987 158.244 22.36C156.964 23.0213 155.545 23.352 153.988 23.352ZM153.988 20.696C154.948 20.696 155.833 20.4827 156.644 20.056C157.476 19.608 158.137 18.968 158.628 18.136C159.14 17.2827 159.396 16.2587 159.396 15.064C159.396 13.848 159.14 12.8133 158.628 11.96C158.137 11.1067 157.476 10.456 156.644 10.008C155.833 9.56 154.948 9.336 153.988 9.336C153.028 9.336 152.132 9.56 151.3 10.008C150.468 10.4347 149.796 11.0747 149.284 11.928C148.772 12.7813 148.516 13.8267 148.516 15.064C148.516 16.2587 148.761 17.2827 149.252 18.136C149.764 18.968 150.436 19.608 151.268 20.056C152.1 20.4827 153.007 20.696 153.988 20.696ZM165.362 7.032H168.434V23H165.362V7.032ZM174.514 6.712C175.41 6.712 176.221 6.84 176.946 7.096C177.672 7.352 178.29 7.736 178.802 8.248C179.314 8.73867 179.709 9.35733 179.986 10.104C180.285 10.8293 180.434 11.6613 180.434 12.6V23H177.394V13.272C177.394 12.0133 177.085 11.0747 176.466 10.456C175.869 9.816 174.952 9.496 173.714 9.496C172.754 9.496 171.88 9.72 171.09 10.168C170.301 10.616 169.65 11.2133 169.138 11.96C168.648 12.6853 168.349 13.5067 168.242 14.424L168.21 12.664C168.317 11.8107 168.541 11.0213 168.882 10.296C169.245 9.57067 169.693 8.94133 170.226 8.408C170.781 7.85333 171.421 7.43733 172.146 7.16C172.872 6.86133 173.661 6.712 174.514 6.712ZM187.816 0.439999V3.736H184.008V0.439999H187.816ZM184.392 7.032H187.432V23H184.392V7.032ZM207.089 16.92C206.961 18.2427 206.534 19.3947 205.809 20.376C205.105 21.336 204.177 22.072 203.025 22.584C201.873 23.096 200.593 23.352 199.185 23.352C197.628 23.352 196.198 23.032 194.897 22.392C193.596 21.7307 192.55 20.7813 191.761 19.544C190.993 18.2853 190.609 16.792 190.609 15.064C190.609 13.3147 190.993 11.8213 191.761 10.584C192.55 9.32533 193.596 8.36533 194.897 7.704C196.198 7.04267 197.628 6.712 199.185 6.712C200.593 6.712 201.862 6.968 202.993 7.48C204.124 7.992 205.052 8.728 205.777 9.688C206.502 10.6267 206.94 11.7573 207.089 13.08H204.305C203.942 11.928 203.292 11.0213 202.353 10.36C201.436 9.67733 200.38 9.336 199.185 9.336C198.204 9.336 197.286 9.56 196.433 10.008C195.601 10.456 194.929 11.1067 194.417 11.96C193.926 12.792 193.681 13.8267 193.681 15.064C193.681 16.2587 193.926 17.2827 194.417 18.136C194.929 18.968 195.601 19.608 196.433 20.056C197.265 20.4827 198.182 20.696 199.185 20.696C200.55 20.696 201.66 20.3653 202.513 19.704C203.366 19.0427 203.974 18.1147 204.337 16.92H207.089ZM209.261 17.816H212.077C212.183 18.6693 212.567 19.3733 213.229 19.928C213.89 20.4613 214.818 20.728 216.013 20.728C216.781 20.728 217.378 20.6427 217.805 20.472C218.231 20.28 218.53 20.024 218.701 19.704C218.893 19.384 218.989 19.032 218.989 18.648C218.989 18.1573 218.861 17.784 218.605 17.528C218.349 17.2507 217.986 17.0267 217.517 16.856C217.047 16.664 216.493 16.4827 215.853 16.312C215.149 16.12 214.445 15.896 213.741 15.64C213.037 15.384 212.386 15.0747 211.789 14.712C211.213 14.3493 210.743 13.9013 210.381 13.368C210.039 12.8133 209.869 12.1413 209.869 11.352C209.869 10.6907 210.007 10.072 210.285 9.496C210.583 8.92 210.999 8.42933 211.533 8.024C212.087 7.59733 212.727 7.27733 213.453 7.064C214.178 6.82933 214.978 6.712 215.853 6.712C217.069 6.712 218.093 6.936 218.925 7.384C219.757 7.81067 220.386 8.41867 220.813 9.208C221.261 9.99733 221.495 10.904 221.517 11.928H218.829C218.679 11.032 218.37 10.3813 217.901 9.976C217.431 9.54933 216.727 9.336 215.789 9.336C214.871 9.336 214.167 9.51733 213.677 9.88C213.186 10.2427 212.941 10.7333 212.941 11.352C212.941 11.8213 213.111 12.2053 213.453 12.504C213.794 12.7813 214.253 13.0267 214.829 13.24C215.405 13.4533 216.055 13.6773 216.781 13.912C217.463 14.1467 218.114 14.392 218.733 14.648C219.373 14.8827 219.938 15.1707 220.429 15.512C220.941 15.832 221.335 16.2587 221.613 16.792C221.911 17.304 222.061 17.944 222.061 18.712C222.061 19.6507 221.826 20.472 221.357 21.176C220.887 21.8587 220.205 22.392 219.309 22.776C218.434 23.16 217.367 23.352 216.109 23.352C214.957 23.352 213.975 23.2133 213.165 22.936C212.375 22.6587 211.703 22.296 211.149 21.848C210.615 21.4 210.199 20.9307 209.901 20.44C209.623 19.928 209.431 19.4373 209.325 18.968C209.239 18.4987 209.218 18.1147 209.261 17.816Z" fill="black"/>
</svg>
