<svg version="1.1" id="_x30_" xmlns="http://www.w3.org/2000/svg" xmlns:xlink="http://www.w3.org/1999/xlink" x="0px" y="0px" viewBox="0 0 600 204.914" style="width: 395px; height: 135px; background: black" xml:space="preserve">
<style type="text/css">
	.st0{fill:#040000;}
</style>
  <g>
	<path class="st0" d="M190.17,109.997c-1.245,2.096-2.493,4.19-3.748,6.281c-0.127,0.211-0.281,0.414-0.458,0.586
		c-0.909,0.883-1.883,1.706-2.733,2.641c-1.923,2.111-3.771,4.29-5.679,6.415c-1.122,1.25-2.393,2.376-3.431,3.689
		c-1.007,1.274-2.269,2.384-2.858,3.97c-0.06,0.162-0.299,0.353-0.466,0.364c-0.682,0.045-0.871,0.573-1.192,1.027
		c-0.288,0.407-0.673,0.778-1.088,1.057c-1.351,0.906-2.709,1.807-4.113,2.626c-1.84,1.074-3.738,2.049-5.592,3.101
		c-2.379,1.35-4.705,2.799-7.429,3.413c-0.479,0.108-0.896,0.491-1.417,0.79c0.828,0.556,1.451,0.713,2.294,0.517
		c1.303-0.302,2.611-0.613,3.946-0.822c1.958-0.306,4.082-0.348,5.684-1.859c0.168-0.159,0.463-0.202,0.709-0.258
		c0.842-0.191,1.682-0.397,2.533-0.535c1.015-0.164,2.019-0.197,2.717,0.791c0.048,0.068,0.183,0.073,0.359,0.137
		c0.311-0.143,0.676-0.311,1.088-0.5c1.008,0.89,2.164,0.628,3.288,0.262c1.678-0.548,3.338-1.137,5.133-1.177
		c0.243-0.005,0.513-0.086,0.72-0.214c2.183-1.342,4.619-2.147,6.758-3.682c2.217-1.592,4.143-3.417,6.049-5.305
		c0.961-0.952,1.37-1.038,2.474-0.286c0.255,0.174,0.595,0.234,0.903,0.314c0.36,0.093,0.731,0.145,1.095,0.226
		c0.271,0.06,0.538,0.137,0.93,0.238c-0.095-0.473-0.16-0.793-0.281-1.394c0.663,0.388,1.111,0.65,1.579,0.924
		c-0.22,0.538-0.603,1.207-0.507,1.285c0.625,0.506,0.019,0.829-0.124,1.163c-0.214,0.501-0.547,0.951-0.885,1.516
		c0.303,0.516,0.643,1.094,1.042,1.772c-0.677,0.901-1.411,1.877-2.193,2.919c0.489,0.544,0.344,1.016-0.06,1.678
		c-1.309,2.147-3.408,3.439-5.186,5.076c-0.171,0.157-0.423,0.225-0.67,0.351c-0.042-0.475-0.081-0.929-0.122-1.392
		c-2.296,2.941-5.148,5.423-8.365,7.41c0.115-0.03,0.229-0.059,0.342-0.087c0.536-0.132,1.07-0.352,1.61-0.368
		c0.789-0.023,1.68-0.102,2.348,0.217c0.795,0.38,2.023-0.137,2.43,1.165c0.111,0.354,0.875,0.132,1.086-0.324
		c0.113-0.245,0.185-0.509,0.303-0.844c0.946,0.64,1.798,1.254,2.549,1.874c7.172-5.313,13.769-11.359,18.842-18.551
		c0.424-0.921,0.846-1.844,1.272-2.764c1.352-2.917,3.846-6.563,4.185-9.787c0.027-0.264,0.185-0.434,0.376-0.529
		c-0.088-0.062-0.17-0.12-0.264-0.186c1.735-0.706,3.245-1.321,4.969-2.022c0.038,0.694-0.162,1.042-0.416,1.334
		c0.258,0.116,0.446,0.37,0.339,0.722c-0.44,1.458-0.792,2.936-1.452,4.316c-0.078,0.162-0.193,0.248-0.319,0.292
		c-1.069,3.734-3.018,7.348-5.065,10.812c0.165,0.054,0.311,0.103,0.474,0.156c-0.181,0.359-0.376,0.611-0.439,0.893
		c-0.486,2.159-1.707,3.891-3.16,5.486c-0.307,0.337-0.93,0.592-0.967,0.932c-0.152,1.403-1.329,1.955-2.13,2.802
		c-0.665,0.704-1.28,1.358-1.487,2.385c-0.177,0.878-0.546,1.756-1.009,2.527c-0.772,1.287-1.619,2.544-2.561,3.712
		c-0.858,1.064-1.882,1.996-2.836,2.982c-0.925,0.955-2.513,0.786-3.346,1.962c-0.094,0.132-0.741-0.128-1.207-0.221
		c-0.003,0.002-0.116,0.033-0.175,0.108c-0.878,1.109-1.387,2.689-3.253,2.533c-0.036-0.003-0.08,0.059-0.118,0.094
		c-1.534,1.431-3.426,2.176-5.371,2.827c-0.368,0.123-0.767,0.294-0.61,0.845c1.415-0.111,2.802-0.074,4.121-0.356
		c2.325-0.496,4.68-0.906,6.857-1.993c0.889-0.444,1.786-1.265,2.958-0.743c0.69-0.597,1.572-0.611,2.39-0.861
		c1.726-0.525,3.576-0.568,5.225-1.38c0.242-0.119,0.587-0.09,0.873-0.049c0.456,0.067,0.902,0.201,1.319,0.299
		c-0.001,0.232-0.003,0.444-0.004,0.751c0.567-0.369,1.015-0.614,1.408-0.928c0.721-0.576,1.265-0.458,1.695,0.302
		c0.418-0.176,0.972-0.242,1.225-0.552c1.155-1.416,3.067-1.964,3.938-3.617c0.399,0.035,0.758,0.028,1.088,0.07
		c0.251-0.419,0.427-0.899,0.47-1.492c0.037-0.274,0.199-0.428,0.392-0.496c-0.086-0.201-0.176-0.4-0.25-0.606
		c-0.712-1.974-0.221-2.33,1.091-3.489c0.757-0.668,0.872-0.831,1.363-1.918c0.077-0.17,0.135-0.349,0.203-0.525
		c-0.459-0.307-0.456-1.142,0.216-1.162c0.183-0.006,0.391,0,0.61,0.009c0.847-0.818,1.972-1.367,2.824-2.202
		c0.349-1.823,1.705-3.078,2.595-4.593c0.357-0.607,0.724-1.208,1.093-1.808c3.055-7,6.099-14.03,6.356-21.767
		c-0.133-0.095-0.274-0.182-0.424-0.258c-0.587-0.299-1.003-0.935-1.696-1.61c2.989-0.359,5.539-1.12,8.299-0.694
		c-1.274,9.925-3.031,19.708-7.056,28.898c0.322,0.078,0.583,0.361,0.446,0.765c-0.655,1.93-0.762,4.195-1.853,5.953
		c-1.071,1.724-2.824,1.644-4.515,0.936c-0.05,0.018-0.101,0.034-0.151,0.052c-0.335,0.147-0.672,0.291-1.024,0.399
		c-0.177,0.054-0.339,0.021-0.473-0.062c-0.078,0.212-0.169,0.421-0.291,0.624c-0.82,1.365-2.48,1.275-1.247,3.275
		c1.204,1.953,2.916,3.529,4.392,5.265c1.439,1.693,2.788,3.469,4.43,4.9c0.93,0.442,1.771,1.357,2.699,1.423
		c1.863,0.132,3.401,1.161,5.198,1.45c0.234-0.423,0.426-0.992,1.098-0.7c0.869,0.377,1.276-0.191,1.488-0.816
		c0.231-0.68,0.255-1.431,0.376-2.194c0.318-0.175,0.712-0.392,1.143-0.629c-0.12-0.499-0.273-0.935-0.324-1.384
		c-0.166-1.457-0.471-2.929-0.379-4.373c0.071-1.124,0.644-2.219,1.012-3.321c0.289-0.867,0.603-1.727,0.91-2.589
		c0.217-0.608,0.448-1.211,0.658-1.821c0.145-0.42,0.277-0.846,0.393-1.275c0.101-0.376,0.119-0.782,0.264-1.137
		c1.071-2.609,2.213-5.171,2.917-7.937c0.9-3.536,2.098-7.001,3.263-10.464c0.331-0.983,0.8-2.093,1.559-2.712
		c0.786-0.642,1.017-1.46,1.473-2.213c0.154-0.255,0.238-0.57,0.439-0.774c0.634-0.646,1.357-1.209,1.957-1.883
		c0.897-1.008,1.883-1.251,3.068-0.623c0.271,0.143,0.508,0.372,0.792,0.464c0.811,0.26,1.666,0.732,2.453,0.648
		c2.068-0.221,3.461-1.99,3.603-4.107c0.08-1.205-0.406-2.276-0.597-3.408c-0.279-1.658-1.161-3-1.847-4.449
		c-0.119-0.252-0.452-0.395-0.633-0.629c-0.988-1.28-2.429-2.093-3.398-3.424c-0.493-0.678-1.226-1.227-2.222-1.474
		c-1.242-0.307-2.593-0.817-3.507-1.661c-1.355-1.25-2.659-1.743-4.362-1.114c-0.511-0.277-1.047-0.483-1.596-0.532
		c-0.553-0.049-1.126,0.019-1.679,0.104c-1.156,0.179-2.294,0.5-3.382-0.311c-0.201-0.15-0.775-0.081-0.978,0.104
		c-0.877,0.803-1.958,1.096-3.037,1.456c-0.756,0.253-1.605,0.522-2.139,1.057c-0.479,0.48-0.919,0.708-1.541,0.801
		c-2.466,0.368-4.94,0.705-7.389,1.162c-3.508,0.655-7.008,1.364-10.494,2.13c-2.936,0.644-5.842,1.425-8.771,2.103
		c-4.761,1.102-9.526,2.19-14.299,3.236c-0.847,0.186-1.746,0.137-2.621,0.197c0.422-0.741,1.231-0.953,1.208-1.843
		c-0.003-0.121,0.504-0.233,0.752-0.386c0.899-0.558,1.994-0.964,2.627-1.743c0.729-0.898,1.976-0.716,2.604-1.619
		c0.038-0.055,0.269,0.045,0.408,0.035c1.554-0.108,3.09-0.322,4.384-1.279c1.688-1.249,3.544-1.929,5.656-1.841
		c1.48,0.062,2.705-0.624,3.733-1.529c1.511-1.33,1.953-3.304,0.239-5.066c-0.592-0.608-1.303-1.102-1.887-1.718
		c-1.009-1.067-1.96-2.189-2.977-3.334c0.218-0.096,0.437-0.237,0.676-0.292c2.428-0.55,4.873-1.035,7.287-1.64
		c3.042-0.763,6.127-1.026,9.247-1.084c1.524-0.029,3.046-0.226,4.569-0.234c0.845-0.004,1.857-0.026,2.504,0.401
		c1.502,0.989,3.562,0.99,4.663,2.654c0.046,0.069,0.205,0.143,0.263,0.114c0.695-0.342,0.949,0.344,1.339,0.61
		c0.324-0.163,0.592-0.298,0.927-0.466c0.84,1.475,2.165,0.495,3.344,0.74c0.12-0.405,0.231-0.777,0.344-1.158
		c0.609,0.011,1.228,0.326,1.675-0.385c0.353-0.562,0.836-1.042,1.35-1.665c-0.019-0.217-0.01-0.631-0.1-1.021
		c-0.16-0.689-0.625-1.399-0.534-2.04c0.393-2.759,0.933-5.498,1.435-8.241c0.279-1.525,0.734-3.033,0.847-4.569
		c0.181-2.455,0.979-4.755,1.514-7.119c0.566-2.503,1.786-4.739,2.966-6.996c0.637-1.219,1.49-2.241,2.599-2.953
		c1.766-1.135,3.584-1.977,5.772-0.703c1.744,1.015,3.7,0.636,5.571,0.175c0.271-0.067,0.576-0.292,0.719-0.531
		c0.736-1.226,1.396-2.483,1.164-4.002c-0.326-2.134-1.406-3.996-2.163-5.972c-0.807-2.104-2.545-3.384-4.399-4.513
		c-2.516-1.533-5.051-3.035-7.532-4.622c-1.055-0.675-2.009-1.512-2.98-2.31c-0.813-0.668-1.537-1.451-2.384-2.069
		c-1.15-0.84-2.281-0.772-3.05,0.36c-0.668,0.984-1.502,1.435-2.576,1.64c-0.396,0.076-0.802,0.104-1.193,0.197
		c-0.778,0.184-1.573,0.225-2.188,0.943c-0.353,0.412-1.028,0.67-1.596,0.758c-2.568,0.402-5.152,0.703-7.726,1.071
		c-3.437,0.491-6.805,1.273-10.09,2.411c-1.491,0.517-3.004,0.971-4.514,1.432c-2.973,0.907-5.998,1.668-8.915,2.726
		c-4.697,1.704-9.336,3.569-13.972,5.434c-1.249,0.503-2.399,1.251-3.716,1.951c0.718,0.664,0.949,1.254,0.142,1.811
		c0.297,0.211,0.547,0.389,0.835,0.593c-0.293,0.147-0.49,0.246-0.861,0.432c0.491,0.262,0.781,0.523,1.102,0.57
		c1.645,0.24,3.211,0.778,4.97,0.529c2.995-0.425,6.03-0.243,9.004-1.233c2.584-0.861,5.231-1.663,7.995-1.948
		c1.961-0.202,3.89-0.691,5.843-0.99c1.358-0.207,2.732-0.308,4.099-0.458c0.507-0.056,1.012-0.136,1.52-0.172
		c2.059-0.146,4.12-0.256,6.178-0.424c1.968-0.161,3.932-0.379,6.016-0.583c-0.07,0.577-0.088,1.136-0.211,1.672
		c-0.879,3.828-1.711,7.668-2.691,11.47c-1.02,3.954-2.22,7.861-3.28,11.805c-0.414,1.54-1.787,2.286-2.63,3.464
		c-0.135,0.19-0.558,0.265-0.838,0.246c-2.213-0.154-4.443-0.271-6.268-1.796c-0.042-0.035-0.177,0.039-0.384,0.092
		c0.191,0.314,0.363,0.596,0.648,1.062c-0.745,0.056-1.294,0.168-1.829,0.12c-0.829-0.075-1.433,0.125-1.989,0.806
		c-0.36,0.44-0.969,0.758-1.529,0.939c-3.198,1.037-6.414,2.018-9.625,3.017c-1.803,0.561-3.592,1.173-5.414,1.661
		c-1.421,0.381-2.889,0.58-4.324,0.912c-0.637,0.148-1.236,0.454-1.868,0.636c-1.17,0.337-2.343,0.679-3.534,0.924
		c-0.337,0.069-0.841-0.089-1.098-0.327c-0.701-0.651-1.455-1.285-1.55-2.38c-0.042-0.492-0.218-1.037-0.506-1.431
		c-0.938-1.282-1.203-2.69-1.103-4.24c0.072-1.125,0.014-2.259,0.014-3.673c1.088,0.636,2.018,1.137,2.903,1.706
		c1.532,0.984,2.87,2.567,5.014,1.49c0.082-0.041,0.203-0.002,0.305-0.009c1.971-0.137,3.944-0.257,5.913-0.418
		c3.15-0.257,6.262-0.773,9.349-1.438c0.793-0.171,1.566-0.43,2.355-0.617c0.541-0.128,1.091-0.226,1.643-0.296
		c1.556-0.195,3.106,0.539,4.677,0.004c0.622-0.212,1.318-0.44,1.943-0.363c1.46,0.181,2.539-0.539,3.678-1.222
		c1.482-0.888,2.068-2.277,1.954-3.878c-0.093-1.308-0.749-2.397-2.173-2.801c-0.216-0.061-0.371-0.319-0.57-0.465
		c-0.688-0.506-1.333-1.101-2.087-1.479c-1.221-0.613-2.517-1.075-3.775-1.614c-1.374-0.588-2.8-0.812-4.296-0.777
		c-1.536,0.036-3.068-0.086-4.476-0.82c-0.218-0.114-0.456-0.211-0.697-0.258c-0.998-0.195-2.001-0.368-3.123-0.571
		c-0.661,1.142-1.883,1.722-3.229,2.136c-1.505,0.463-3.005,0.947-4.496,1.452c-3.556,1.202-6.863,3.13-10.617,3.596
		c-0.767,1.315,0.966,1.548,1.104,2.748c-0.795-0.313-1.426-0.561-2.043-0.804c-0.047-0.507-0.014-0.933-0.134-1.309
		c-0.662-2.068-0.282-4.221-0.547-6.32c-0.03-0.243,0.06-0.502,0.095-0.754c0.169-1.207,0.432-2.409,0.489-3.621
		c0.102-2.187,0.338-4.238,2.271-5.727c0.838-0.646,0.775-1.269,0.14-2.142c-0.301-0.413-0.807-0.753-0.93-1.205
		c-0.531-1.952-2.311-2.758-3.568-4.028c-1.955-1.976-4.689-2.353-7.142-3.31c-2.266-0.884-4.775-1.093-6.862-2.479
		c-0.207-0.138-0.486-0.294-0.707-0.264c-1.403,0.189-2.567-0.531-3.822-0.918c-0.514-0.158-1.069-0.181-1.685-0.278
		c0.156,0.588,0.361,1.044,0.385,1.51c0.108,2.137-0.123,4.305,0.725,6.363c0.173,0.418,0.233,0.889,0.304,1.342
		c0.615,3.929,1.193,7.863,1.836,11.787c0.618,3.773,1.305,7.535,1.95,11.304c0.611,3.569,1.284,7.13,1.775,10.715
		c0.199,1.452,0.79,2.89,0.335,4.432c-0.176,0.594,0.132,1.258,0.83,1.465c0.994,0.294,1.407,1.097,1.896,1.886
		c0.547,0.882,0.883,1.989,2.166,2.191c0.245,0.039,0.509,0.36,0.644,0.614c0.399,0.752,1.048,1.194,1.729,1.651
		c0.481,0.323,0.873,0.798,1.255,1.248c0.359,0.424,0.572,1.005,0.991,1.339c1.146,0.915,2.392,1.704,3.551,2.603
		c1.005,0.78,2.072,1.279,3.371,1.195c0.448-0.029,0.9-0.005,1.515-0.005c-0.17,0.497-0.231,0.845-0.396,1.133
		C191.885,107.117,191.026,108.556,190.17,109.997z" style="fill: rgb(255, 255, 255);"></path>
    <path class="st0" d="M541.449,67.91c-0.33,0.289-0.599,0.727-0.903,0.752c-0.825,0.068-1.63,0.003-2.484,0.176
		c-0.715,0.145-1.599-0.664-2.269,0.315c-0.903-0.291-1.508,0.674-2.391,0.571c-0.194-0.023-0.607,0.318-0.623,0.516
		c-0.128,1.492-1.244,1.786-2.384,2.058c-3.156,0.753-6.316,1.492-9.472,2.244c-1.978,0.471-3.955,0.942-5.927,1.437
		c-1.13,0.284-2.246,0.628-3.375,0.921c-0.61,0.158-1.191,0.115-1.744-0.274c-1.579-1.112-3.193-2.174-4.762-3.3
		c-0.77-0.552-1.556-1.016-2.77-1.322c0.518,1.066,0.915,1.886,1.313,2.706c-0.054,0.039-0.107,0.079-0.161,0.119
		c-0.687-0.488-1.375-0.976-2.092-1.485c-0.112,0.293-0.199,0.518-0.284,0.74c-0.251-0.045-0.479-0.086-0.788-0.142
		c-0.27,2.048,0.309,4.069-0.421,5.957c-3.273,0.966-6.498,1.92-9.725,2.868c-2.444,0.718-4.891,1.425-7.335,2.143
		c-1.171,0.344-2.339,0.699-3.508,1.053c-3.708,1.125-7.412,2.265-11.126,3.371c-2.007,0.598-4.018,1.185-6.049,1.692
		c-2.374,0.593-4.872,0.508-7.221,1.324c-0.916,0.318-1.928,0.36-3.075,0.558c0.51,0.36,0.89,0.628,1.375,0.97
		c-0.409,0.055-0.697,0.094-1.131,0.151c0.176,0.478,0.481,0.914,0.455,1.331c-0.033,0.542-0.327,1.067-0.521,1.636
		c1.303,0.574,2.747,0.79,3.682,1.949c0.076,0.094,0.263,0.121,0.403,0.139c1.02,0.132,1.955,0.624,2.677,1.252
		c1.33,1.157,2.699,2.27,4.068,3.381c0.128,0.104,0.387,0.026,0.562,0.093c1.308,0.501,2.797,0.486,3.912,1.548
		c1.228,1.17,1.885,1.144,3.128,0.088c0.113-0.096,0.152-0.299,0.273-0.362c0.427-0.22,0.897-0.61,1.308-0.563
		c2.155,0.248,3.505-0.807,4.265-2.639c0.312-0.752,0.276-1.688,0.242-2.534c-0.036-0.905,0.264-1.591,0.98-2.067
		c1.342-0.892,2.727-1.719,4.07-2.611c0.282-0.187,0.436-0.557,0.682-0.809c0.487-0.497,0.937-1.069,1.514-1.433
		c1.071-0.676,2.231-1.209,3.338-1.83c1.589-0.891,3.146-1.842,4.754-2.698c0.699-0.372,1.49-0.57,2.238-0.848
		c1.704-0.632,3.406-1.264,5.349-1.984c-0.09,1.058-0.16,1.81-0.218,2.563c-0.249,3.198-0.518,6.395-0.724,9.596
		c-0.048,0.738-0.543,1.548,0.179,2.236c-0.67,0.982-0.384,2.123-0.531,3.192c-0.151,1.103-0.772,1.786-1.872,2.003
		c-0.744,0.147-1.594,0.072-2.223,0.416c-0.707,0.387-1.089,0.317-1.351-0.222c-0.388,0.282-0.674,0.618-1.028,0.721
		c-0.865,0.252-1.757,0.424-2.648,0.57c-0.329,0.054-0.714,0.02-1.022-0.104c-0.634-0.255-1.185-0.185-1.65,0.288
		c-0.361,0.367-0.685,0.587-1.192,0.244c-0.138-0.092-0.401-0.073-0.58-0.018c-2.503,0.763-4.997,1.558-7.621,1.814
		c-0.145,0.014-0.286,0.107-0.424,0.175c-2.254,1.101-4.762,1.243-7.145,1.851c-2.796,0.713-5.66,1.164-8.496,1.72
		c-2.549,0.5-5.091,1.043-7.652,1.472c-3.772,0.63-7.552,1.209-11.338,1.746c-2.95,0.418-5.902,0.997-8.902,0.284
		c-0.349-0.083-0.85,0.167-1.18,0.402c-0.36,0.256-0.604,0.675-0.887,1.011c0.23,0.515,0.745,1.141,0.598,1.437
		c-0.354,0.709,0.407,1.567-0.39,2.158c-0.073,0.054,0.035,0.517,0.182,0.676c0.62,0.671,1.234,1.367,1.954,1.919
		c0.476,0.365,1.006,0.864,1.786,0.469c0.226-0.114,0.787,0.05,0.949,0.268c0.483,0.654,1.256,1.457,1.165,2.094
		c-0.168,1.164,0.578,1.418,1.191,1.858c1.316,0.944,2.679,1.797,3.698,3.126c0.399,0.52,0.973,1.236,1.936,0.832
		c0.202-0.085,0.568,0.094,0.802,0.24c0.472,0.294,0.997,0.575,1.338,0.994c0.737,0.905,1.719,1.065,2.755,1.051
		c0.759-0.01,1.518-0.15,2.275-0.247c1.86-0.237,3.582-0.587,4.864-2.276c0.773-1.019,1.735-2.799,0.918-4.14
		c-0.152-0.249-0.229-0.543-0.401-0.963c0.653-0.365,1.253-0.728,1.877-1.045c1.089-0.552,2.424-0.85,3.23-1.672
		c0.893-0.912,1.935-1.403,2.969-1.998c0.215-0.123,0.406-0.288,0.608-0.433c1.237-0.89,2.406-1.899,3.997-2.138
		c0.347-0.052,0.676-0.216,1.015-0.327c2.288-0.747,4.285-2.309,6.798-2.439c0.121-0.006,0.22-0.212,0.353-0.281
		c0.494-0.257,0.981-0.544,1.502-0.731c1.233-0.443,2.623-0.617,3.694-1.3c1.548-0.987,3.418-0.645,4.935-1.538
		c0.075-0.044,0.229-0.045,0.294,0.003c0.789,0.591,0.996-0.28,1.415-0.674c0.638,0.611,1.202,0.415,1.848,0.091
		c0.576-0.289,1.351-0.677,1.861-0.502c1.082,0.371,1.928-0.029,2.861-0.335c0.293-0.096,0.645-0.015,1.122-0.015
		c-0.076,1.542-0.736,3.064,0.528,4.269c0,1.665,0,3.33,0,5.345c-0.555-0.431-0.812-0.631-1.146-0.891
		c0.331,1.024-0.469,1.028-1.017,1.209c-4.206,1.394-8.407,2.81-12.636,4.134c-1.683,0.527-3.354,1.262-5.223,0.851
		c-0.618-0.136-1.29-0.021-1.95-0.021c0.053,0.669,0.092,1.167,0.132,1.657c-0.366,0.156-0.672,0.285-0.939,0.399
		c0.062,0.327,0.096,0.577,0.157,0.82c0.215,0.858,0.342,1.753,1.286,2.207c1.096,0.528,2.137,1.179,3.258,1.643
		c1.822,0.756,3.663,1.494,5.55,2.059c1.01,0.302,2.132,0.804,3.21-0.011c0.224-0.17,0.582-0.174,0.883-0.228
		c1.879-0.336,3.634-0.96,5.171-2.134c0.195-0.148,0.516-0.131,0.911-0.22c-0.034,0.65-0.056,1.152-0.088,1.653
		c-0.049,0.77,0.406,0.745,0.976,0.649c0.075-0.534-0.764-1.034,0.152-1.639c0.346,1.558,0.102,3.063,0.178,4.507
		c0.055,0.026,1.788,0.852,1.788,0.852c-1.191-0.151-1.332,0.022-0.985,1.103c0.102,0.317,0.192,0.366,0.55,0.463
		c0.689,0.186,0.638,0.673-0.038,1.108c-0.123,0.079-0.248,0.157-0.435,0.275c0.195,1.711,0.385,3.429,0.595,5.144
		c0.022,0.186,0.173,0.354,0.239,0.539c0.148,0.413,0.366,0.825,0.401,1.25c0.121,1.521,0.19,3.046,0.253,4.57
		c0.031,0.743,0.005,1.488,0.005,2.232c-0.068-0.103-0.136-0.205-0.204-0.308c-0.692,0.282-1.451,0.036-1.999,0.422
		c-0.089,2.711-0.141,5.268-0.27,7.822c-0.062,1.222-0.335,1.43-1.569,1.63c-2.33,0.377-4.656,0.484-6.991,0.003
		c-0.438-0.09-0.917-0.015-1.374,0.02c-0.807,0.062-1.612,0.232-2.415,0.215c-2.181-0.048-4.36-0.161-6.539-0.268
		c-0.556-0.027-1.108-0.134-1.664-0.187c-0.484-0.047-0.971-0.07-1.456-0.103c0.26,0.371,0.574,0.478,0.886,0.592
		c1.511,0.557,3.101,0.899,4.46,1.858c0.407,0.287,1.029,0.311,1.561,0.373c1.753,0.202,3.436,0.51,4.355,2.243
		c-0.375,0.56-0.735,1.098-1.218,1.82c-0.569-0.326-1.162-0.642-1.73-0.997c-1.047-0.655-2.374-0.891-3.044-2.118
		c-0.338-0.619-0.827-0.311-1.464,0.148c0.315,0.083,0.629,0.166,0.945,0.249c-2.281,0.229-4.305-0.301-6.347,0.521
		c2.023,0.602,4.046,1.203,5.993,1.783c0.168,0.603,0.286,1.028,0.398,1.434c1.082,0.154,2.146,0.105,2.81,1.127
		c0.131,0.202,0.552,0.211,0.835,0.321c1.165,0.456,2.508,0.523,3.391,1.606c0.127,0.156,0.49,0.096,0.716,0.199
		c1.509,0.69,3.01,1.397,4.514,2.099c0.696,1.623,2.435,1.85,3.699,2.689c1.464,0.972,3.086,1.708,4.647,2.532
		c0.21,0.111,0.501,0.255,0.691,0.193c1.335-0.439,2.378,1.129,3.734,0.53c0.062-0.028,0.27,0.391,0.402,0.386
		c0.831-0.033,0.855,1.073,1.472,1.096c0.657,0.026,1.329-0.264,1.991-0.43c1.537-0.385,3.14-0.705,3.883-2.355
		c0.347-0.771,0.567-1.603,0.804-2.419c0.333-1.149,0.034-2.47,0.974-3.466c0.122-0.129,0.004-0.474,0.019-0.718
		c0.022-0.354-0.069-0.82,0.12-1.041c0.884-1.034,0.315-1.886-0.211-2.782c-0.151-0.258-0.219-0.563-0.329-0.845
		c-0.78-2.016-0.902-4.155-1.143-6.267c-0.206-1.801-0.32-3.613-0.491-5.419c-0.064-0.67,0.255-1.403-0.406-1.991
		c-0.172-0.153-0.203-0.624-0.113-0.883c0.373-1.064,0.285-2.039-0.159-3.081c-0.143-0.336,0.4-0.91,0.4-1.376
		c0-0.554-0.544-1.37-0.329-1.613c0.648-0.737,0.208-1.489,0.243-2.188c0.053-1.077-0.555-2.298-0.226-3.225
		c0.613-1.732-0.321-3.408,0.206-5.094c0.211-0.677-0.033-1.486-0.002-2.232c0.031-0.746,0.123-1.492,0.233-2.232
		c0.124-0.831,0.146-0.828-0.496-1.42c0.238-0.362,0.638-0.698,0.673-1.068c0.138-1.486,0.163-2.981,0.241-4.696
		c0.852-0.068,1.825-0.433,2.483-0.125c0.798,0.373,1.453,1.237,1.948,2.028c0.742,1.186,1.838,1.951,2.767,2.902
		c1.156-1.016,2.253-0.888,3.055,0.275c0.743,1.077,1.651,1.436,2.804,0.982c0.576-0.227,1.078-0.234,1.615,0.018
		c0.761,0.357,1.453,0.369,2.103-0.286c0.273-0.274,0.686-0.407,1.03-0.612c0.564-0.336,0.852-0.78,0.862-1.493
		c0.025-1.825,0.865-3.561,0.624-5.431c-0.035-0.27,0.23-0.566,0.282-0.862c0.192-1.092,0.592-2.22,0.452-3.274
		c-0.123-0.934,0.077-1.656,0.358-2.473c0.56-1.63,1.206-3.26,1.502-4.945c0.451-2.575,1.375-4.998,1.987-7.573
		c1.802-0.391,3.404-0.838,5.038-1.063c1.629-0.224,3.292-0.195,4.935-0.338c0.681-0.059,1.574,0.296,1.903-0.762
		c0.027-0.087,0.668-0.1,0.679-0.059c0.244,0.956,0.884,0.324,1.335,0.333c0.427,0.009,0.941-0.256,1.269-0.096
		c0.781,0.381,1.513,0.086,2.265,0.066c0.864-0.022,1.728-0.074,2.591-0.061c2.5,0.036,4.626,1.11,6.644,2.458
		c1.969,1.315,3.789,2.882,6.136,3.545c0.625,0.176,1.229,0.513,1.86,0.566c1.443,0.123,2.752,0.486,4.035,1.213
		c0.791,0.448,1.766,0.574,2.804,0.387c1.01-0.182,1.273-0.955,1.74-1.543c1.091-1.373,1.341-2.94,0.65-4.593
		c-0.489-1.17-0.987-2.339-1.537-3.481c-0.233-0.485-0.564-0.945-0.935-1.336c-0.377-0.396-0.872-0.676-1.291-1.035
		c-0.618-0.529-1.147-1.196-1.834-1.603c-1.487-0.88-3.031-1.668-4.584-2.428c-2.836-1.387-5.983-2.23-8.156-4.754
		c-0.057-0.066-0.184-0.072-0.268-0.102c-0.514,0.239-1.005,0.467-1.496,0.696c2.254-0.11,2.379,1.709,3.005,3.024
		c-0.568-0.327-0.971-0.897-1.52-1.163c-0.535-0.259-1.224-0.191-1.838-0.304c-0.188-0.034-0.342-0.222-0.53-0.287
		c-0.377-0.129-0.799-0.375-1.144-0.3c-1.181,0.255-2.308,0.749-3.56,0.69c-0.156-0.008-0.306,0.372-0.499,0.522
		c-0.429,0.335-0.842,0.789-1.335,0.923c-0.975,0.265-1.997,0.448-3.007,0.483c-3.109,0.109-6.221,0.138-9.331,0.181
		c-0.368,0.005-0.737-0.09-1.437-0.182c1.125-1.729,2.018-3.26,3.075-4.669c0.679-0.905,1.736-1.535,2.374-2.461
		c0.897-1.301,1.771-2.589,3.026-3.575c0.079-0.062,0.136-0.152,0.204-0.229c0.853-0.961,1.896-1.512,3.208-1.462
		c1.729,0.067,3.458,0.171,5.188,0.205c1.817,0.036,3.21-0.536,4.19-2.294c1.276-2.288,0.974-4.591,0.632-6.953
		c-0.025-0.173-0.252-0.31-0.362-0.478c-1.055-1.609-2.721-2.565-4.137-3.773c-0.739-0.63-1.831-0.826-2.689-1.341
		c-1.654-0.993-3.255-2.074-4.878-3.119c-0.578-0.372-1.915-0.489-2.304-0.183c-0.446,0.351-0.835,0.942-1.324,1.035
		c-0.846,0.161-1.177,0.656-1.332,1.273C542.122,69.343,541.957,68.306,541.449,67.91z M499.401,119.78
		c-0.281-0.029-0.695,0.036-0.775-0.098c-0.364-0.609,0.136-2.44,1.05-2.946C499.588,117.711,499.5,118.686,499.401,119.78z
		 M515.427,113.34c-0.244,0.415-0.923,0.592-1.425,0.833c-0.267,0.128-0.582,0.154-0.873,0.235c-0.365,0.101-0.999,0.37-1.045,0.291
		c-0.24-0.411-0.419-0.904-0.453-1.379c-0.065-0.928-0.019-1.864-0.019-3.074c1.634-0.996,3.578-0.94,5.796-0.949
		C516.708,110.76,516.155,112.101,515.427,113.34z M517.65,112.636c0.495-1.031,0.933-2.019,1.45-2.965
		c0.123-0.226,0.508-0.309,0.915-0.539C519.312,111.749,519.189,111.923,517.65,112.636z M527.284,83.184
		c-0.792,1.482-1.273,3.05-1.811,4.612c-0.05,0.144-0.092,0.292-0.157,0.429c-0.539,1.131-1.192,2.222-1.592,3.399
		c-0.383,1.128-0.392,2.383-0.77,3.514c-0.497,1.491-1.176,2.922-1.824,4.358c-0.105,0.233-0.436,0.468-0.694,0.513
		c-2.339,0.399-4.684,0.756-7.246,1.16c0.403-0.988,0.627-1.836,1.067-2.551c0.838-1.362,1.308-2.863,1.75-4.361
		c0.319-1.081,0.752-1.852,1.964-2.008c0.334-0.043,0.659-0.271,0.958-0.461c0.852-0.54,1.04-1.279,0.58-2.188
		c-0.298-0.59-0.642-1.162-0.892-1.772c-0.126-0.308-0.253-0.832-0.098-1.001c0.716-0.782,0.191-1.254-0.317-1.76
		c-0.464-0.463-1.038-0.855-1.378-1.395c-0.319-0.507-0.393-1.167-0.68-2.101c1.098-0.121,2.136-0.182,3.152-0.367
		c0.682-0.124,1.336-0.412,1.995-0.648c0.331-0.119,0.642-0.39,0.966-0.395c0.195-0.003,0.396,0.373,0.759,0.749
		c1.478-1.036,3.431-1.372,5.525-1.265C528.574,80.881,527.883,82.063,527.284,83.184z" style="fill: rgb(255, 255, 255);"></path>
    <path class="st0" d="M364.786,73.926c-1.761-1.375-3.571-2.714-5.486-3.857c-1.283-0.766-2.624-1.532-4.281-1.495
		c-0.846,0.019-1.798-0.153-2.412-1.058c-0.285-0.42-0.913-0.606-1.432-0.927c-0.65,0.751-1.381,0.853-2.228,0.491
		c-0.252-0.108-0.587-0.074-0.875-0.038c-0.848,0.103-1.689,0.276-2.54,0.353c-1.055,0.096-2.117,0.123-3.16,0.179
		c-0.079,0.698-0.146,1.287-0.214,1.893c-2.112,0.676-4.176,1.216-6.146,1.994c-3.368,1.329-6.648,2.882-10.024,4.188
		c-1.483,0.573-2.829,1.749-4.907,1.221c0.042,1.179-0.653,1.494-1.476,1.812c-1.186,0.457-2.316,1.063-3.454,1.638
		c-1.423,0.718-1.412,0.729-2.472-0.404c-0.173-0.185-0.382-0.341-0.591-0.485c-0.786-0.545-1.323-1.233-1.529-2.205
		c-0.076-0.361-0.379-0.889-0.667-0.955c-1.314-0.301-2.552-1.158-4-0.647c-0.601,0.212-1.178,0.23-1.76-0.144
		c-0.283-0.182-0.679-0.176-1.003-0.306c-0.75-0.299-1.579-0.507-2.205-0.978c-0.73-0.55-1.666-0.873-2.277-0.563
		c-1.268,0.642-2.496,0.059-3.712,0.28c-0.09,0.017-0.168,0.099-0.333,0.2c-0.087,0.365-0.189,0.795-0.287,1.208
		c-0.706,0.212-1.369-0.889-2.136-0.009c0.402,0.376,0.764,0.714,1.061,0.991c-0.351,0.326-0.721,0.583-0.977,0.925
		c-0.574,0.77-0.679,1.676-0.604,2.611c0.061,0.76,0.184,1.522,0.173,2.282c-0.031,2.4-0.218,4.802-0.146,7.198
		c0.095,3.156,0.36,6.308,0.59,9.459c0.092,1.272,0.232,2.545,0.445,3.801c0.288,1.701,0.777,3.375,0.976,5.084
		c0.173,1.491-0.038,3.035,0.968,4.336c0.071,0.091,0.002,0.299-0.018,0.45c-0.162,1.189,0.481,1.694,1.516,2.116
		c2.364,0.964,4.59,2.194,6.419,4.032c0.139,0.14,0.274,0.307,0.446,0.389c1.365,0.647,2.763,1.229,4.105,1.92
		c2.182,1.124,4.43,1.27,6.704,0.46c1.301-0.464,2.526-1.142,3.913-1.783c0.186,2.577,0.432,5.166,0.546,7.761
		c0.145,3.284,0.569,2.876-2.58,4.252c-4.622,2.021-9.152,4.261-13.82,6.163c-2.314,0.943-4.486,2.533-7.197,2.184
		c-0.087,0.872-0.694,1.03-1.495,1.079c0.57,0.359,0.985,0.62,1.433,0.902c-0.447,0.337-0.815,0.615-1.182,0.892
		c-0.319,0.219-0.767,0.165-1.216,0.149c-0.113-0.004-0.23,0.118-0.359,0.19c0.315,0.333,0.588,0.621,0.855,0.903
		c-0.712,0.931-0.841,1.509-0.299,2.03c0.536,0.516,1.153,1,1.821,1.317c1.097,0.521,2.274,0.871,3.398,1.339
		c1.153,0.48,2.04,1.718,3.546,1.193c0.121-0.042,0.355,0.179,0.511,0.309c0.545,0.455,1.107,0.896,1.609,1.395
		c0.612,0.608,1.221,1.039,2.153,0.703c0.591-0.213,1.173-0.164,1.735,0.259c1.338,1.008,3.035,0.76,3.935-0.466
		c0.884-1.205,2.098-2.056,2.874-3.463c0.992-1.799,3.123-2.621,4.759-3.84c0.184,0.204,0.267,0.27,0.314,0.355
		c0.048,0.087,0.075,0.191,0.086,0.29c0.205,1.765-0.037,3.424-1.137,4.89c-0.21,0.28-0.535,0.615-0.515,0.904
		c0.099,1.436-0.959,2.018-1.941,2.78c0.408,0.733,0.579,1.521-0.162,2.177c-0.701,0.62-0.771,1.316-0.59,2.209
		c0.238,1.174,0.707,2.317,0.514,3.58c-0.067,0.439,0.127,1.229,0.42,1.357c1.062,0.463,1.263,1.627,2.13,2.142
		c-0.174,0.33-0.295,0.558-0.415,0.785c0.093,0.058,0.187,0.116,0.28,0.174c0.258-0.374,0.516-0.748,0.818-1.187
		c0.336,0.494,1.565,0.048,1.347,1.287c-0.008,0.046,0.239,0.163,0.379,0.206c0.969,0.298,1.926,0.711,2.918,0.836
		c0.848,0.107,1.434,0.406,1.864,1.104c0.422,0.684,1.018,1.097,1.807,1.314c0.874,0.24,1.742,0.493,2.402,1.236
		c0.439,0.495,1.216,0.554,1.637,0.102c1.027-1.102,1.963-0.643,2.71-0.138c0.619-0.578,1.066-1.277,1.691-1.523
		c1.451-0.569,1.772-1.869,2.248-3.058c0.23-0.575,0.359-1.255-0.177-1.865c-0.202-0.23-0.308-0.706-0.22-0.997
		c0.243-0.807-0.152-1.323-0.54-1.953c-0.35-0.569-0.574-1.3-0.596-1.969c-0.06-1.821,0.138-3.656,0.009-5.469
		c-0.162-2.279-0.575-4.538-0.83-6.812c-0.409-3.643-0.777-7.292-1.156-10.938c-0.01-0.09,0.06-0.188,0.112-0.337
		c0.701-0.431,1.415-0.931,2.181-1.332c2.297-1.201,4.598-2.396,6.929-3.529c1.23-0.598,2.505-1.115,3.794-1.571
		c1.818-0.643,3.674-1.176,5.503-1.791c2.357-0.793,4.677-1.706,7.061-2.405c1.725-0.506,3.514-0.952,5.297-1.063
		c2.827-0.176,5.173-1.533,7.366-2.977c1.942-1.278,3.71-2.978,3.235-5.896c-0.206-1.265-0.71-2.16-1.672-2.724
		c-1.434-0.84-2.975-1.51-4.505-2.172c-0.593-0.256-1.279-0.386-1.928-0.408c-1.517-0.053-3.039-0.04-4.556,0.012
		c-1.165,0.04-2.33,0.29-3.488,0.248c-1.361-0.049-2.7-0.229-3.893,0.648c-0.117,0.085-0.294,0.082-0.435,0.139
		c-1.595,0.647-3.234,1.205-4.77,1.969c-2.374,1.18-4.682,2.494-7.006,3.771c-0.395,0.217-0.743,0.524-1.099,0.806
		c-0.634,0.501-1.198,1.121-1.895,1.504c-1.963,1.078-3.964,2.089-5.98,3.065c-0.712,0.344-1.511,0.509-2.464,0.818
		c-0.072-2.98-0.214-5.764-0.165-8.545c0.016-0.861,0.113-1.86,1.332-2.306c1.025-0.375,1.91-1.153,2.822-1.801
		c0.265-0.188,0.489-0.518,0.594-0.829c0.205-0.609,0.312-1.251,0.473-1.938c1.265,0.044,1.97-0.729,2.482-1.601
		c0.709-1.209,0.678-1.26,1.941-0.59c0.526-0.597,1.058-1.2,1.658-1.88c0.785,0.478,2.094-0.808,2.535,0.932
		c0.493-0.609,0.891-1.101,1.35-1.666c0.309,0.378,0.501,0.613,0.704,0.862c1.343-1.304,2.599-2.544,3.882-3.755
		c0.243-0.23,0.611-0.515,0.891-0.486c1.029,0.108,1.399-0.588,1.823-1.28c0.147-0.24,0.313-0.555,0.544-0.644
		c1.689-0.647,2.442-2.221,3.155-3.599c1.464-2.833,2.96-5.683,3.704-8.845c0.173-0.737,0.649-1.53,1.223-2.018
		c1.217-1.035,2.506-1.922,2.206-3.821c-0.05-0.32,0.172-0.679,0.251-1.023C366.685,76.75,366.291,75.101,364.786,73.926z
		 M313.247,96.52c0.479,0.216,0.959,0.433,1.522,0.687c-0.551,0.536-1.159,0.28-1.809,0.371
		C313.075,97.153,313.161,96.836,313.247,96.52z M318.986,109.097c-1.028,0.414-2.038,0.821-3.068,1.235
		c-2.822-2.954-4.329-6.071-3.523-10.039c2.273-0.248,4.495-0.491,6.89-0.753C319.516,102.697,318.824,105.804,318.986,109.097z
		 M320.12,92.321c-0.004,0.049-0.056,0.1-0.048,0.143c0.412,2.161-1.198,2.638-2.686,3.136c-0.706,0.236-1.405,0.359-2.084,0.774
		c-0.52,0.317-1.357,0.116-2.054,0.142c0-0.001,0-0.001,0.001-0.002c0.28-0.185,0.695-0.306,0.819-0.566
		c0.582-1.218,1.241-2.433,1.576-3.726c0.442-1.709,0.707-3.482,0.852-5.244c0.081-0.982,0.455-1.51,1.324-1.763
		c0.717-0.208,1.448-0.367,2.262-0.569C320.435,87.272,320.308,89.796,320.12,92.321z M333.315,103.758
		c-0.115,0.194-0.547,0.453-0.713,0.605c-0.822,0.747-1.45-4.885-0.822-6.273c0.241-0.557,4.179-0.624,4.655-0.46
		C336.32,99.34,334.355,102.013,333.315,103.758z M340.6,84.311c-0.015,0.101-0.034,0.204-0.071,0.298
		c-0.275,0.696-0.394,1.822-0.866,1.997c-1.054,0.393-2.292,0.442-3.441,0.379c-0.775-0.043-2.825,1.066-2.92,0.423
		c-0.05-0.333-1.475,0.727-1.447,0.378c0.12-1.525-0.298-5.451,1.492-6.558c0.71-0.963,1.512-1.405,2.505-1.587
		c1.694-0.31,3.379-0.673,5.091-1.019C341.82,80.557,340.878,82.416,340.6,84.311z" style="fill: rgb(255, 255, 255);"></path>
    <path class="st0" d="M374.071,92.038c-1.71,0.908-3.389,1.872-5.086,2.803c-3.084,1.693-6.16,3.401-9.264,5.056
		c-0.857,0.457-1.803,0.746-2.886,1.183c0.56,0.135,0.922,0.222,1.471,0.354c-1.154,0.735-2.139,1.363-3.231,2.059
		c0.939,0.519,0.81,1.011,0.004,1.381c0.459,1.02,1.313,1.208,2.181,1.34c1.541,0.235,3.086,0.442,4.63,0.66
		c-0.028,0.269-0.052,0.505-0.06,0.579c0.92-0.103,1.826-0.183,2.726-0.31c1.505-0.212,3.104-0.204,4.487-0.741
		c2.266-0.879,4.594-1.691,6.627-3.108c0.428-0.299,0.989-0.408,1.629-0.66c0.68,2.23,1.258,4.284,1.936,6.305
		c0.874,2.606,1.835,5.183,2.742,7.778c0.213,0.609,0.459,1.059,1.201,1.207c0.359,0.071,0.682,0.546,0.927,0.903
		c0.373,0.544,0.723,1.12,0.97,1.729c0.2,0.493,0.373,1.074,0.303,1.581c-0.087,0.638-0.363,1.279-0.683,1.849
		c-0.747,1.335-1.559,2.635-2.362,3.938c-1.281,2.08-2.622,4.11-4.433,5.793c-0.409,0.381-0.655,0.937-0.97,1.419
		c0.554,0.108,1.052-0.017,1.428-0.45c0.77-0.884,1.287-0.881,2.254,0.078c0.456,0.452,0.635,0.741,0.344,1.192
		c-0.9,1.39-1.782,2.802-2.811,4.095c-1.298,1.632-2.733,3.155-4.117,4.718c-0.045,0.051-0.178,0.024-0.283,0.035
		c0-0.239,0-0.475-0.001-0.712c-0.323,0.145-0.646,0.291-0.937,0.422c-0.281-1.02-0.529-1.919-0.834-3.023
		c-0.521,0.682-0.93,1.135-1.245,1.648c-0.525,0.854-0.925,1.788-1.494,2.608c-0.664,0.957-1.432,1.847-2.198,2.728
		c-0.447,0.514-1,0.934-1.468,1.43c-0.452,0.479-0.895,0.977-1.273,1.515c-0.367,0.521-0.4,1.314-1.244,1.424
		c-0.069,0.009-0.185,0.186-0.173,0.202c0.739,0.939-0.557,0.762-0.672,1.225h0c0,0.001,0,0.002-0.001,0.003
		c-0.001,0.006-0.005,0.011-0.006,0.017l0.02-0.019c-0.176,0.16-0.336,0.436-0.529,0.461c-1.38,0.179-2.368,0.967-3.273,1.944
		c-0.745,0.805-1.467,1.666-2.34,2.312c-1.542,1.141-3.029,2.335-4.294,3.77c-0.471,0.534-1.115,1.066-1.096,1.937
		c1.469-0.693,2.839-1.352,4.22-1.989c1.613-0.744,3.152-1.551,4.443-2.848c0.879-0.882,1.997-1.551,3.08-2.195
		c0.686-0.408,1.565-0.49,2.25-0.899c2.021-1.208,4.369-1.042,6.532-1.642c0.953-0.264,2.02-0.105,3.033-0.168
		c0.187-0.012,0.366-0.167,0.548-0.258c0.625-0.316,1.641-0.506,1.793-0.976c0.323-1,1.213-0.564,1.748-1.007
		c1.201-0.993,2.665-1.661,3.951-2.562c0.796-0.557,1.907-0.559,2.485-1.463c1.189,0.037,1.843-0.975,2.78-1.387
		c0.747-0.329,1.505-0.735,2.201-1.095c1.251-0.646,2.346-1.539,3.859-1.442c0.78-1.012,2.039-1.215,3.147-1.862
		c0.403,0.57,0.852,1.125,1.211,1.733c0.486,0.823,0.791,1.774,1.371,2.516c1.222,1.564,2.606,3,3.857,4.543
		c0.631,0.778,1.374,1.596,0.829,2.587c0.67,0.476,1.395,0.764,1.759,1.298c0.723,1.062,1.099,2.374,2.437,2.934
		c0.14,0.058,0.154,0.368,0.279,0.517c0.515,0.613,1.018,1.242,1.588,1.801c0.651,0.638,1.34,1.246,2.063,1.801
		c1.324,1.018,2.584,2.208,4.068,2.902c0.956,0.447,1.872,0.896,2.747,1.48c0.307,0.205,0.761,0.303,1.134,0.274
		c0.752-0.06,1.504-0.202,2.238-0.38c1.623-0.393,3.244-0.8,4.85-1.257c1.336-0.38,2.087-1.528,2.122-2.915
		c0.046-1.842-0.806-3.466-1.175-5.206c-0.031-0.144-0.104-0.304-0.208-0.403c-0.528-0.496-0.633-1.09-0.608-1.796
		c0.012-0.344-0.245-0.787-0.518-1.029c-0.444-0.394-1.001-0.66-1.503-0.975c0.023-1.298,0.016-1.587-0.652-2.06
		c-0.989-0.7-1.255-1.792-1.468-2.789c-0.446-2.097,0.247-4.191,0.366-6.292c0.025-0.43,0.172-0.778,0.035-1.288
		c-0.593-2.21-1.038-4.463-1.484-6.71c-0.155-0.782-0.281-1.605-0.206-2.389c0.174-1.822,0.409-3.644,0.748-5.442
		c0.341-1.81-0.353-3.493-0.558-5.298c-0.162,0.337-0.324,0.674-0.496,1.032c-0.474-0.156-0.599-0.981-1.359-0.649
		c-0.677,0.295-0.336,0.891-0.521,1.322c-0.098,0.227-0.068,0.505-0.139,0.748c-0.571,1.948-0.97,3.973-1.777,5.818
		c-0.97,2.218-2.223,4.324-3.495,6.391c-0.443,0.719-0.9,1.628-1.918,1.856c-0.13-0.141-0.259-0.236-0.33-0.363
		c-1.675-2.981-3.361-5.957-5-8.958c-0.367-0.672-0.449-1.321,0.121-2.106c1.67-2.297,3.187-4.704,4.782-7.056
		c0.486-0.717,0.905-1.566,1.574-2.055c1.317-0.963,2.729-1.847,4.215-2.511c0.954-0.426,1.177-0.993,1.176-1.878
		c-0.001-0.508,0.09-1.016,0.095-1.525c0.004-0.34,0.051-0.769-0.126-1.007c-1.223-1.65-1.864-3.786-3.957-4.725
		c-0.524-0.235-0.747-0.731-0.462-1.326c-2.113-1.422-5.047-2.523-7.837-2.781c-2.442-0.226-4.215-1.64-5.878-2.973
		c-1.27,0.061-2.422,0.117-3.591,0.174c0.237,0.642,0.438,1.186,0.65,1.761c-0.254,0.046-0.442,0.08-0.737,0.134
		c0.447,0.979-0.158,1.575-0.914,2.254c-1.532-2.896-2.198-6.02-3.084-9.01c0.144-0.16,0.196-0.271,0.28-0.304
		c3.126-1.231,6.241-2.494,9.391-3.661c1.327-0.492,2.731-1.099,4.097-1.093c2.652,0.012,4.852-1.493,7.372-1.811
		c0.137-0.017,0.286-0.137,0.381-0.249c0.81-0.96,1.97-1.65,2.346-3.208c-1.286-1.027-0.687-2.426-0.216-3.972
		c-1.38-0.593-2.677-1.301-4.064-1.688c-0.79-0.221-1.448-0.373-1.724-1.256c-1.398,0-2.76-0.198-4.04,0.042
		c-2.522,0.472-5.058,0.504-7.595,0.681c-1.805,0.126-3.679,0.171-5.251,1.312c-0.178,0.129-0.423,0.23-0.511,0.406
		c-0.483,0.977-1.137,1.252-1.886,0.581c-0.83-0.743-1.498-1.663-2.274-2.47c-0.433-0.451-0.942-0.83-1.417-1.242
		c0.113,0.532,0.153,1.095,0.356,1.59c0.481,1.172,0.998,2.334,1.581,3.459c0.63,1.217,0.408,2.109-0.867,2.735
		c-0.16-0.298-0.403-0.582-0.471-0.904c-0.869-4.07-1.867-8.121-2.517-12.227c-0.56-3.535-1.464-6.951-2.606-10.319
		c-0.943-2.785-1.99-5.539-2.097-8.524c-0.021-0.594-0.371-0.877-0.792-1.208c-1.303-1.023-2.974-1.486-4.126-2.735
		c-0.071-0.076-0.269-0.035-0.504-0.058c0.074,0.387,0.135,0.706,0.222,1.16c-0.581,0.106-1.1,0.201-1.753,0.32
		c-0.098,0.644-0.253,1.333-0.298,2.029c-0.125,1.928-0.212,3.858-0.298,5.789c-0.148,3.316-0.308,6.632-0.417,9.95
		c-0.068,2.067-0.122,4.139-0.056,6.204c0.068,2.132,0.271,4.261,0.446,6.389c0.121,1.469,0.243,2.941,0.455,4.398
		c0.292,2.014,0.581,4.036,1.041,6.015C375.545,90.993,375.015,91.537,374.071,92.038z" style="fill: rgb(255, 255, 255);"></path>
    <polygon class="st0" points="387.958,75.697 387.962,75.701 387.961,75.696 	" style="fill: rgb(255, 255, 255);"></polygon>
    <path class="st0" d="M21.992,98.836c0.397,0.182,0.774,0.434,1.104,0.714c3.169,2.69,6.055,5.679,9.605,7.966
		c1.612,1.039,3.34,1.551,5.138,2.065c1.463,0.418,3.073,0.042,4.455,0.854c0.209,0.123,0.6,0.045,0.873-0.04
		c0.531-0.165,1.061-0.362,1.552-0.616c0.939-0.485,1.623-1.134,1.576-2.294c-0.039-0.975-0.03-1.962,0.083-2.931
		c0.07-0.602,0.236-1.278,0.601-1.746c0.697-0.893,1.525-1.706,2.387-2.458c0.338-0.295,0.956-0.535,1.376-0.454
		c1.442,0.277,2.586-0.334,3.682-1.015c0.669-0.416,1.114-1.038,1.309-1.895c0.15-0.656,0.67-1.328,1.213-1.787
		c1.639-1.387,3.361-2.685,5.068-3.998c1.809-1.392,3.562-2.868,5.475-4.114c2.862-1.865,5.145-4.325,7.596-6.604
		c1.218-1.133,2.371-2.275,3.934-2.96c0.148-0.065,0.206-0.322,0.366-0.589c-1.474,0.251-2.417,1.812-4.146,0.984
		c0.415-0.516,0.679-1.02,1.098-1.326c0.87-0.635,1.08-1.336,0.44-2.195c1.212-0.624,1.212-0.624,1.437-1.562
		c-0.38,0.125-0.702,0.233-1.025,0.337c-0.856,0.275-1.67-0.099-1.48-0.842c0.28-1.102-0.478-1.686-0.866-2.459
		c-0.149-0.297-0.438-0.543-0.702-0.769c-0.421-0.36-0.557-0.732-0.399-1.288c0.344-1.211,0.613-2.442,0.889-3.67
		c0.057-0.254,0.008-0.53,0.008-1.079c-1.217,0.789-2.285,1.355-3.196,2.1c-1.747,1.428-3.589,2.582-5.944,2.782
		c-0.555,0.047-1.165,0.08-1.639,0.322c-1.174,0.6-2.422,0.92-3.67,1.315c-1.957,0.619-3.75,1.728-5.596,2.66
		c-0.898,0.453-1.734,1.025-2.647,1.445c-0.506,0.232-1.112,0.261-1.769,0.402c-0.103-1.075-0.131-1.957-0.279-2.821
		c-0.619-3.602-2.429-6.833-3.525-10.292c-0.574-1.811-0.89-3.412,0.52-4.898c-0.167-0.283-0.301-0.512-0.261-0.444
		c0.461-0.584,0.755-1.06,1.151-1.437c1.231-1.176,2.46-2.359,3.773-3.446c0.559-0.463,1.203-1.103,2.137-0.508
		c0.182,0.116,0.594,0.004,0.847-0.112c0.822-0.377,1.662-0.74,2.416-1.224c1.995-1.283,4.282-0.969,6.444-1.003
		c1.056-0.017,1.947-0.033,2.887-0.532c0.909-0.483,1.832-0.84,3.026-0.564c1.09,0.253,2.312,0.053,3.464-0.062
		c0.473-0.047,0.943-0.349,1.363-0.612c1.092-0.685,2.285-1.133,3.567-1.189c0.944-0.042,1.763-0.3,2.587-0.689
		c0.759-0.358,1.552-0.447,2.37-0.093c0.312,0.135,0.795,0.324,1,0.194c0.959-0.609,2.069-1.169,2.705-2.033
		c0.78-1.06,0.97-2.369,0.744-3.789c-0.273-1.712-1.231-3.115-1.945-4.586c-0.754-1.553-2.113-2.845-3.277-4.196
		c-0.476-0.553-1.109-0.992-1.713-1.428c-0.843-0.607-1.683-1.238-2.601-1.725c-1.78-0.944-3.727-1.638-5.391-2.735
		c-1.303-0.859-2.308-2.132-3.581-3.102c-0.596-0.454-1.111-0.822-1.822-0.758c-0.894,0.08-1.991,0.028-2.605,0.505
		c-0.75,0.581-1.779,1.004-2.148,2.037c-0.088,0.246-0.554,0.355-0.826,0.553c-0.512,0.373-1.31,0.678-1.461,1.164
		c-0.622,2-2.007,3.608-2.842,5.493c-0.433,0.979-1.102,1.884-1.783,2.734c-2.33,2.905-4.74,5.738-7.476,8.316
		c-2.43,2.291-4.713,4.729-7.047,7.114c-0.577,0.59-1.163,1.082-2.077,1.102c-0.327,0.007-0.917,0.218-0.929,0.37
		c-0.069,0.841-0.821,1.108-1.343,1.399c-0.689,0.384-0.889,0.822-0.717,1.497c-1.089,0.184-2.082,0.351-3.185,0.537
		c0.225,1.164-1.025,0.961-1.499,1.571c0.585,1.59-1.41,1.192-1.672,2.095c0.027,1.064,0.049,2.135-0.116,3.179
		c-0.099,0.626-0.029,1.05,0.532,1.377c0.846,0.494,1.303,1.27,1.472,2.162c0.42,2.221,0.9,4.442,1.121,6.684
		c0.208,2.103,0.046,4.237,0.171,6.35c0.171,2.887,0.458,5.768,0.714,8.864c-1.133,0.703-2.422,1.539-3.749,2.316
		c-1.16,0.68-2.4,1.237-3.53,1.957c-0.749,0.477-1.338,1.167-2.27,1.399c-0.819,0.204-0.727,1.053-1.097,1.569
		c-0.358,0.501-1.267,0.352-1.569,1.174c-0.236,0.644-0.444,1.333-0.72,1.971C19.615,96.693,20.701,98.244,21.992,98.836z" style="fill: rgb(255, 255, 255);"></path>
    <path class="st0" d="M533.971,41.345c-1.073-0.38-2.331-0.457-2.957-1.692c-0.086-0.169-0.605-0.121-0.924-0.167
		c-0.145-0.021-0.292-0.024-0.378-0.031c-0.29-0.411-0.545-0.772-0.759-1.075c-0.674,0.336-1.235,0.615-1.981,0.987
		c0.486,0.162,0.838,0.217,1.118,0.389c0.36,0.222,0.663,0.538,0.99,0.813c-0.092-0.005-0.184-0.01-0.276-0.015
		c-0.179,0.286-0.358,0.572-0.517,0.827c-0.401-0.061-0.751-0.086-1.086-0.169c-1.338-0.333-2.808-0.103-3.914-1.365
		c-0.605-0.691-1.512-0.228-2.083,0.552c-0.85,1.16-1.662,2.383-3.386,2.47c-1.263,0.064-2.517,0.366-3.769,0.594
		c-1.554,0.284-3.1,0.607-4.652,0.899c-0.124,0.023-0.27-0.066-0.461-0.118c0.079-0.418,0.151-0.803,0.189-1.006
		c-0.558-0.727-0.985-1.335-1.466-1.898c-0.887-1.038-1.641-2.318-2.755-3c-1.211-0.741-2.745-1.086-4.181-1.28
		c-1.029-0.139-1.858-0.325-2.454-1.197c-0.047-0.07-0.173-0.086-0.273-0.132c-0.205,0.338-0.408,0.674-0.544,0.898
		c-1.229,0.28-2.382-0.262-3.459,0.318c-0.102,0.055-0.308-0.019-0.435-0.089c-0.732-0.409-1.454-0.836-2.18-1.256
		c0.024-0.093,0.048-0.186,0.071-0.278c-0.628,0.123-1.257,0.247-1.847,0.363c-0.098,2.93-0.614,5.556-2.909,7.493
		c-0.183,0.154-0.344,0.418-0.38,0.652c-0.247,1.629-1.316,2.812-2.161,4.122c-0.228,0.353-0.314,0.796-0.504,1.301
		c0.462,0,0.73,0,1.074,0c-0.374,1.894-2.167,2.849-2.818,4.62c0.703,0.047,1.339,0.204,1.92,0.085
		c0.359-0.074,0.633-0.567,0.944-0.871c0.096,0.046,0.191,0.091,0.286,0.136c-0.218,0.696-0.427,1.396-0.666,2.085
		c-0.033,0.096-0.235,0.218-0.328,0.196c-0.53-0.125-0.54,0.265-0.695,0.59c-0.261,0.546-0.583,1.067-0.917,1.573
		c-0.505,0.767-1.072,1.495-1.559,2.272c-0.697,1.112-1.281,2.3-2.036,3.368c-0.601,0.85-1.387,1.57-2.25,2.524
		c-0.475-1.11-0.838-1.956-1.266-2.955c-0.212,0.881-0.472,1.605-1.185,2.113c-0.275-0.593-0.223-1.306-1.05-1.577
		c0.018,0.813-1.073,1.364-0.21,2.189c-0.207,0.191-0.399,0.524-0.624,0.547c-0.879,0.091-1.416,0.416-1.377,1.398
		c0.006,0.158-0.255,0.31-0.337,0.49c-0.873,1.912-2.46,3.219-3.928,4.622c-0.474,0.453-0.84,0.927-0.989,1.519
		c0.998-0.223,1.918-0.614,2.822-0.582c0.99,0.035,1.911,0.054,2.821-0.374c0.124-0.058,0.367,0.121,0.548,0.205
		c1.246,0.574,2.537,0.672,3.866,0.368c0.27-0.062,0.538-0.134,0.87-0.216c-0.125,0.358-0.206,0.591-0.292,0.838
		c1.251-0.15,1.738-1.77,3.13-1.324c0.043,0.436,0.08,0.808,0.132,1.324c1.244-0.694,2.626-1.071,3.367-1.975
		c1.013-1.234,2.475-0.566,3.492-1.335c0.081-0.061,0.165-0.121,0.237-0.193c1.04-1.042,2.146-2.03,3.086-3.156
		c0.419-0.502,0.82-0.919,1.429-1.025c0.989-0.172,1.621-0.866,2.213-1.524c0.805-0.895,1.512-1.895,2.148-2.92
		c0.812-1.308,1.892-2.423,3.097-3.24c1.107-0.751,2.084-1.595,2.851-2.604c1.353-1.779,2.511-3.708,3.744-5.578
		c0.632-0.958,1.278-1.868,2.652-1.611c0.192,0.036,0.405-0.031,0.607-0.059c1.818-0.246,3.633-0.512,5.455-0.726
		c0.458-0.054,0.936,0.056,1.608,0.105c-0.302,0.503-0.416,0.787-0.61,0.997c-0.589,0.638-1.033,1.305-1.32,2.171
		c-0.291,0.882-0.054,2.064-1.139,2.551c-0.409-0.077-0.807-0.244-1.013,0.328c-0.186,0.516-0.409,1.019-0.586,1.537
		c-0.402,1.172-0.893,2.274-2.035,2.933c-0.145,0.084-0.264,0.227-0.368,0.363c-0.384,0.495-0.756,0.999-1.136,1.505
		c-0.325-0.247-0.519-0.394-0.694-0.528c-2.766,3.046-5.329,6.249-8.48,8.978c0.376,0.239,0.654,0.416,0.876,0.557
		c0.556-0.201,1.048-0.378,1.731-0.624c-0.17,0.535-0.266,0.836-0.458,1.441c1.564-0.804,2.929-1.4,4.182-2.177
		c1.619-1.004,3.326-1.757,5.194-2.019c0.872-0.122,1.858-0.058,2.68,0.235c1.199,0.427,2.266,0.49,3.361-0.177
		c0.478-0.291,0.955-0.619,1.477-0.798c1.074-0.368,2.16-0.776,3.274-0.929c1.157-0.158,2.391,0.195,3.346-0.843
		c0.213-0.231,0.663-0.235,0.995-0.367c0.802-0.319,1.591-0.669,2.397-0.974c1.645-0.624,3.198-1.593,5.12-1.089
		c0.439,0.115,1.048-0.245,1.521-0.495c0.29-0.153,0.427-0.58,0.71-0.767c1.701-1.125,2.879-2.802,3.926-4.416
		c0.895-1.378,1.91-2.352,3.316-2.947c0.772-0.327,0.958-0.821,1.018-1.518c0.091-1.058,0.225-2.113,0.272-3.173
		c0.019-0.429-0.029-0.939-0.249-1.282c-0.401-0.627-0.928-1.182-1.449-1.723c-0.972-1.009-2.237-1.658-3.305-2.571
		C537.048,41.885,535.347,41.833,533.971,41.345z" style="fill: rgb(255, 255, 255);"></path>
    <path class="st0" d="M528.8,40.554c0.001,0,0.002,0,0.003,0c0.005-0.008,0.01-0.016,0.015-0.025L528.8,40.554z" style="fill: rgb(255, 255, 255);"></path>
    <path class="st0" d="M337.971,43.441c-0.137,0.301-0.381,0.553-0.727,1.043c-1.526-3.039-4.562-4.213-6.7-6.393
		c-1.557-1.588-4.085-1.078-5.872-2.302c-1.182,0.307-2.36,0.288-3.572,0.126c-0.493-0.066-1.043,0.302-1.638,0.495
		c0.706,0.628,0.569,1.465,0.218,2.402c-0.621-0.074-1.206-0.143-1.822-0.216c-0.036,0.678,0.048,1.317-0.123,1.88
		c-0.493,1.63-0.619,3.277-0.566,4.967c0.08,2.576,0.619,5.036,1.462,7.47c0.269,0.777,0.514,1.353,1.25,1.724
		c1.725,0.869,3.436,1.766,5.145,2.667c0.491,0.259,0.925,0.721,1.438,0.827c1.498,0.308,2.834,1.035,4.265,1.492
		c1.934,0.619,3.898,0.785,5.752-0.393c0.38-0.242,0.834-0.387,1.271-0.517c0.815-0.242,1.247-0.832,1.52-1.574
		c0.712-1.939,1.113-3.915,0.817-6.001c-0.151-1.067,0.202-1.575,1.251-1.951c1.103-0.395,2.227-0.688,3.413-0.378
		c0.08,0.226,0.159,0.452,0.312,0.885c0.558-0.451,0.937-0.791,1.349-1.084c1.012-0.72,2.134-1.43,3.376-1.069
		c0.932,0.271,1.804,0.12,2.504-0.185c1.724-0.752,3.551-0.798,5.331-1.014c1.574-0.191,3.06-0.238,4.514-1.122
		c1.481-0.901,2.335-2.354,3.62-3.395c0.139-0.112,0.16-0.366,0.243-0.552c0.491-1.107,0.163-2.214-0.056-3.299
		c-0.157-0.777-0.336-1.628-0.78-2.25c-0.548-0.769-1.291-1.493-2.109-1.955c-1.716-0.969-3.498-1.849-5.325-2.587
		c-1.589-0.642-3.282-1.023-4.918-1.555c-0.361-0.117-0.831-0.3-0.981-0.592c-0.415-0.807-1.048-1.071-1.874-1.029
		c-1.253,0.064-2.511,0.101-3.755,0.248c-0.995,0.118-1.966,0.423-2.958,0.572c-0.646,0.097-0.771,0.353-0.482,0.9
		c0.109,0.206,0.192,0.426,0.331,0.74c-0.708,0.244-1.304,0.449-1.934,0.666c0.227,0.419,0.433,0.799,0.648,1.197
		c-0.352,0.155-0.641,0.282-0.965,0.425c0.706,1.718,0.303,3.314-0.28,4.824C339.798,39.572,338.857,41.497,337.971,43.441z" style="fill: rgb(255, 255, 255);"></path>
    <path class="st0" d="M108.426,164.084c-0.637,0.472-1.326,0.877-1.984,1.324c-0.69,0.468-1.37,0.949-2.104,1.459
		c0.581,0.782,1.029,1.318,2.048,1.221c0.532-0.051,1.294,0.182,1.634,0.555c1.437,1.576,3.497,2.129,5.293,3.072
		c1.446,0.76,3.153,1.052,4.73,1.593c0.604,0.207,1.208,0.427,1.502,1.108c0.238,0.552,0.752,0.622,1.394,0.634
		c1.117,0.021,2.234,0.25,3.342,0.438c0.627,0.106,1.241,0.443,1.855,0.429c0.788-0.018,1.348,0.196,1.898,0.721
		c0.699,0.666,1.609,0.594,2.255-0.073c1.007-1.038,2.06-2.039,3.014-3.12c1.53-1.734,3.08-3.339,3.067-5.984
		c-0.01-2.107-0.573-3.681-2.15-5c-0.456-0.381-1.025-0.641-1.454-1.045c-1.923-1.809-3.904-3.551-6.183-4.938
		c-0.762-0.464-1.586-0.884-2.44-1.149c-1.418-0.439-2.811-0.807-3.132-2.504c-0.039-0.207-0.305-0.375-0.339-0.414
		c-0.795-0.041-1.42-0.085-2.046-0.102c-1.149-0.03-2.224-0.24-3.118-1.013c-0.123-0.107-0.377-0.081-0.573-0.101
		c-1.32-0.135-2.592-0.428-3.843-0.873c-0.756-0.269-1.581-0.403-2.387-0.485c-1.659-0.171-3.328-0.268-5.061-0.4
		c0.193,0.282,0.367,0.536,0.576,0.841c-0.931,0.328-1.582-0.793-2.532-0.306c0.334,0.465,0.614,0.855,0.966,1.346
		c-0.38,0.079-0.672,0.219-0.931,0.176c-0.548-0.09-1.073-0.306-1.619-0.411c-0.525-0.102-1.343,0.528-1.118,0.851
		c0.65,0.933-0.576,1.293-0.517,2.003c0.672,0.514,1.356,1.015,2.01,1.548c0.371,0.303,0.646,0.735,1.049,0.981
		c2.229,1.358,4.487,2.674,6.729,4.012C109.478,161.204,109.58,163.228,108.426,164.084z" style="fill: rgb(255, 255, 255);"></path>
    <path class="st0" d="M294.097,60.959c1.12,1.535,2.324,2.969,4.151,3.719c1.077,0.442,2.124,0.96,3.211,1.376
		c1.799,0.689,3.622,1.315,5.428,1.987c0.425,0.158,0.874,0.324,1.223,0.599c1.524,1.198,3.288,1.689,5.154,1.505
		c1.773-0.175,3.67,0.086,5.186-1.367c0.706-0.677,1.25-1.278,1.213-2.286c-0.044-1.18-0.127-2.329-0.852-3.355
		c-0.28-0.396-0.382-0.935-0.5-1.424c-0.317-1.319-0.618-2.644-0.887-3.973c-0.12-0.589-0.153-1.196-0.219-1.796
		c-0.303-2.739-0.965-5.327-3.512-6.882c-1.333-0.814-2.783-1.438-4.189-2.129c-0.442-0.217-0.926-0.349-1.37-0.563
		c-1.09-0.526-2.088-1.141-3.418-1.159c-1.116-0.015-2.312-0.38-3.312-0.899c-0.982-0.51-1.902-0.632-2.935-0.496
		c-0.956,0.125-1.915,0.223-2.893,0.336c0.04,0.647-0.059,1.215-0.947,1.126c-0.05-0.005-0.102-0.003-0.153,0.004
		c-1.408,0.189-1.638,0.555-1.192,1.932c0.141,0.433,0.32,0.854,0.456,1.212c-0.58,0.785-1.307,1.337-1.421,1.996
		C291.678,54.117,291.75,57.743,294.097,60.959z" style="fill: rgb(255, 255, 255);"></path>
    <path class="st0" d="M399.053,47.67c-0.036,0.098-0.072,0.197-0.108,0.295c1.486,1.056,2.126,2.599,2.575,4.266
		c0.225,0.835,0.423,1.705,0.821,2.461c0.804,1.526,1.794,2.954,2.597,4.481c0.54,1.027,1.056,2.122,1.27,3.246
		c0.144,0.757,0.316,1.461,0.621,2.16c0.243,0.555,0.401,1.146,0.594,1.723c0.119,0.357,0.233,0.717,0.348,1.075
		c0.833-0.446,1.499-0.964,2.248-1.156c0.662-0.17,1.42,0.078,2.13,0.038c0.686-0.038,1.366-0.208,2.16-0.338
		c0.122,0.955,0.167,1.824,0.366,2.657c0.108,0.45,0.449,0.861,0.754,1.233c0.059,0.072,0.517-0.046,0.654-0.199
		c0.451-0.503-0.007-0.941-0.189-1.392c-0.311-0.775-1-1.474-0.434-2.494c0.548-0.159,1.15-0.333,1.704-0.493
		c0.686,0.881,0.131,2.15,1.254,2.997c-0.079-0.807-0.172-1.346-0.177-1.886c-0.013-1.272,0.712-2.243,1.987-2.462
		c0.837-0.144,1.734-0.165,2.57-0.033c1.177,0.186,1.582,0.122,1.973-0.982c0.285-0.805,0.36-1.682,0.558-2.52
		c0.334-1.419,0.051-2.98,1.017-4.262c0.141-0.188,0.114-0.595,0.023-0.85c-0.356-0.998-0.672-2.006-1.47-2.801
		c-0.376-0.375-0.69-0.946-0.758-1.465c-0.133-1.012-0.745-1.609-1.563-1.909c-0.819-0.3-1.363-0.846-1.922-1.433
		c-1.335-1.402-2.957-2.273-4.882-2.519c-1.296-0.166-2.662,0.117-3.854-0.693c-0.165-0.112-0.493,0.033-0.746,0.032
		c-1.096-0.003-2.195,0.037-3.285-0.043c-0.907-0.067-1.799-0.326-2.706-0.418c-1.777-0.182-3.531-0.155-5.144,0.883
		c0.265,0.383,0.505,0.729,0.759,1.096c-0.395,0.201-0.67,0.341-0.934,0.475c0.271,0.635,1.292,0.689,1.006,1.574
		C400.218,47.889,399.635,47.779,399.053,47.67z" style="fill: rgb(255, 255, 255);"></path>
    <path class="st0" d="M498.107,153.338c0-1.682,0-3.104,0-4.803C497.748,150.09,497.708,152.557,498.107,153.338z" style="fill: rgb(255, 255, 255);"></path>
    <path class="st0" d="M199.675,161.24c-0.688,0.046-1.023,0.436-1.135,1.426c0.598-0.485,0.994-0.806,1.39-1.127
		C199.845,161.44,199.76,161.34,199.675,161.24z" style="fill: rgb(255, 255, 255);"></path>
    <path class="st0" d="M361.147,154.142c0.406,0.05,0.732,0.09,1.057,0.13c0.049-0.225,0.095-0.447,0.159-0.749
		C361.72,153.493,361.162,153.348,361.147,154.142z" style="fill: rgb(255, 255, 255);"></path>
    <path class="st0" d="M474.5,159.705c-0.568,0-1.136,0-1.705,0c-0.007,0.069-0.015,0.139-0.023,0.208c0.576,0,1.152,0,1.728,0
		C474.5,159.844,474.5,159.774,474.5,159.705z" style="fill: rgb(255, 255, 255);"></path>
    <path class="st0" d="M376.852,135.188c0.02-0.006,0.034-0.011,0.055-0.018l0.003,0.003c0.007-0.011,0.013-0.023,0.021-0.034
		c-0.022-0.004-0.044-0.003-0.066-0.008C376.86,135.149,376.856,135.169,376.852,135.188z" style="fill: rgb(255, 255, 255);"></path>
    <path class="st0" d="M376.637,136.157c0.079-0.359,0.147-0.665,0.215-0.97C376.207,135.394,376.213,135.417,376.637,136.157z" style="fill: rgb(255, 255, 255);"></path>
    <path class="st0" d="M212.599,165.527c0.03-0.009,0.061-0.019,0.091-0.028c0.001,0-0.037-0.047-0.037-0.047
		C212.631,165.469,212.615,165.499,212.599,165.527z" style="fill: rgb(255, 255, 255);"></path>
    <path class="st0" d="M212.599,165.527c-0.276,0.086-0.555,0.174-0.908,0.285C212.527,166.65,212.428,165.823,212.599,165.527z" style="fill: rgb(255, 255, 255);"></path>
    <path class="st0" d="M387.958,75.697c0,0,0.003-0.001,0.003-0.001c0-0.005,0-0.011-0.001-0.016
		C387.96,75.686,387.959,75.691,387.958,75.697z" style="fill: rgb(255, 255, 255);"></path>
    <path class="st0" d="M387.885,74.114c0.025,0.522,0.05,1.044,0.075,1.566c0.058-0.518,0.116-1.036,0.174-1.553
		C388.051,74.122,387.968,74.118,387.885,74.114z" style="fill: rgb(255, 255, 255);"></path>
    <path class="st0" d="M375.057,142.3c-0.223,0.294-0.446,0.589-0.67,0.883c0.095,0.063,0.19,0.126,0.286,0.189
		c0.205-0.307,0.41-0.615,0.615-0.922C375.211,142.4,375.134,142.35,375.057,142.3z" style="fill: rgb(255, 255, 255);"></path>
    <path class="st0" d="M527.469,40.425c0.405,0.031,0.81,0.063,1.216,0.094c-0.378-0.139-0.751-0.281-1.124-0.425
		C527.531,40.205,527.5,40.315,527.469,40.425z" style="fill: rgb(255, 255, 255);"></path>
    <path class="st0" d="M528.793,40.56c0.007-0.006,0.026-0.031,0.026-0.031c-0.045-0.004-0.09-0.007-0.134-0.01
		C528.721,40.532,528.756,40.547,528.793,40.56z" style="fill: rgb(255, 255, 255);"></path>
    <path class="st0" d="M195.398,139.454c-0.119-0.114-0.238-0.228-0.356-0.342c-0.075,0.107-0.149,0.214-0.251,0.359
		c0.128,0.098,0.234,0.242,0.322,0.231C195.216,139.689,195.303,139.542,195.398,139.454z" style="fill: rgb(255, 255, 255);"></path>
    <path class="st0" d="M79.773,51.033c-0.299,0.073-0.538,0.149-0.784,0.189c-1.206,0.199-1.814,0.862-1.313,1.838
		c0.384,0.748-0.103,0.974-0.315,1.417c-0.288-0.041-0.547-0.079-0.856-0.123c0.362,1.476,0.68,1.931,2.077,3.13
		c1.862,1.597,3.775,3.144,5.552,4.825c1.188,1.124,2.185,2.383,3.657,3.271c0.858,0.518,1.632,1.077,2.629,1.343
		c0.778,0.207,1.505,0.588,2.278,0.82c1.473,0.441,2.851,1.43,4.535,0.771c0.172-0.067,0.431-0.049,0.604,0.026
		c1.062,0.465,1.887,0.016,2.612-0.65c0.722-0.664,1.767-1.139,1.835-2.257c0.058-0.969,0.655-1.439,1.466-1.882
		c0.044,0.216,7.291-5.083,7.251-4.964c-1.329,3.924-3.23,7.588-5.342,11.172c-1.584,2.687-4.918,6.826-7.01,9.103
		c-0.885,0.963-5.622,4.259-7.667,5.707c0.852-0.341,2.049-0.825,3.61-1.293c-0.598,1.86-2.17,2.364-3.691,2.94
		c-0.664,0.252-1.335,0.497-1.971,0.806c-3.092,1.502-6.189,2.996-9.255,4.546c-3.018,1.525-6.031,3.062-8.982,4.702
		c-1.03,0.572-1.839,0.936-2.766-0.057c-0.294-0.315-0.706-0.534-1.082-0.77c-0.657-0.413-1.28-1.091-2.134-0.297
		c-0.09,0.084-0.312,0.11-0.44,0.069c-0.778-0.253-1.101,0.274-1.393,0.773c-2.029-0.68-3.05,0.641-4.133,1.827
		c0.517,0.972,0.702,2.114,0.999,3.185c0.548,1.978,0.905,4.044,1.004,6.089c0.149,3.076,0.022,6.165-0.017,9.248
		c-0.014,1.153-0.271,2.325-0.124,3.453c0.175,1.344,0.656,2.648,0.34,4.034c-0.036,0.158,0.112,0.358,0.181,0.535
		c0.558,1.431,1.083,2.862-0.171,4.202c0.386,0.526,0.708,0.964,1.02,1.39c-0.138,0.444-0.267,0.859-0.409,1.316
		c0.583,0.522,1.156,1.034,1.765,1.58c-0.144,0.438-0.372,0.893-0.42,1.366c-0.028,0.272,0.153,0.679,0.38,0.841
		c1.128,0.802,2.38,2.088,3.09,3.3c0.725,1.239,0.689,1.516-0.352,2.546c-0.127,0.126-0.288,0.222-0.484,0.369
		c0.39,0.492,0.72,0.908,0.955,1.204c-0.181,0.273-0.296,0.488-0.452,0.67c-0.19,0.221-0.423,0.409-0.624,0.622
		c-0.472,0.497-0.42,1.111,0.171,1.473c0.719,0.441,1.459,0.853,2.211,1.239c1.384,0.711,2.916,1.233,4.125,2.153
		c0.693,0.527,1.588,0.371,2.316,1.11c-0.634,1.088-1.155,2.291-1.954,3.287c-1.868,2.329-3.838,4.584-5.831,6.816
		c-0.854,0.957-1.75,1.962-2.839,2.619c-1.145,0.69-1.288,2.391-2.923,2.508c-0.158,0.011-0.269,0.397-0.435,0.582
		c-1.104,1.226-2.24,2.437-3.872,3.012c-1.288,0.453-2.652,0.721-3.912,1.23c-1.236,0.5-2.791,0.234-3.714,1.579
		c-0.352,0.512-0.263,0.732,0.07,1.184c0.516,0,1.127-0.136,1.625,0.034c0.64,0.219,1.122,0.115,1.736-0.076
		c1.905-0.59,3.874-0.568,5.859-0.321c0.217,0.366,0.417,0.703,0.597,1.007c0.949,0.311,1.663-0.125,2.261-0.651
		c0.488-0.43,1.132-0.639,1.522-0.357c0.763,0.551,1.288,0.114,1.744-0.235c0.88-0.673,1.808-0.829,2.844-0.649
		c0.494,1.146,0.813,1.29,1.902,0.784c0.751-0.349,1.471-0.761,2.397-1.246c-0.055,0.586-0.087,0.913-0.137,1.439
		c0.607-0.492,1.022-0.85,1.461-1.179c0.632-0.471,1.226-1.037,1.938-1.345c0.665-0.287,1.114-0.89,1.891-1.009
		c0.717-0.109,1.39-0.323,1.859-1.016c0.399-0.589,1.496-0.688,1.328-1.727c-0.01-0.061,0.292-0.173,0.452-0.255
		c0.499-0.256,0.835-0.626,1.036-1.23c-1.103,0.385-1.103,0.385-1.271-0.234c1.679-0.318,1.657-0.395,2.26-1.281
		c0.56-0.822,0.972-1.729,0.583-2.58c-0.797-1.744-0.104-3.145,0.739-4.554c-0.066-0.299-0.246-0.615-0.169-0.855
		c0.23-0.717-0.604-1.099-0.496-1.864c0.069-0.49-0.611-1.145-1.073-1.619c-0.578-0.592-0.39-1.144-0.042-1.965
		c1.808,0.748,3.487,0.138,5.13-0.266c1.302-0.32,2.519-0.977,3.76-1.513c1.197-0.517,2.344-1.158,3.572-1.588
		c2.07-0.724,4.019-1.663,5.877-2.781c0.938-0.564,1.742-1.37,2.727-1.816c0.639-0.289,0.916-0.777,1.315-1.321
		c0.598,0.885,1.093,1.69,2.27,1.667c0.282-0.005,0.704,0.293,0.837,0.557c0.682,1.359,2.257,1.706,3.206,2.726
		c0.588,0.632,1.321,0.747,2.057,0.801c1.17,0.087,2.352,0.011,3.528,0.042c0.742,0.019,1.239-0.289,1.671-0.848
		c0.93-1.205,0.854-2.669,1.122-4.028c0.203-1.032,0.164-2.118,0.146-3.178c-0.038-2.258-0.113-4.515-0.209-6.771
		c-0.175-4.138-0.42-8.273-0.551-12.412c-0.107-3.39-0.04-6.785-0.144-10.175c-0.097-3.154,1.108-6.006,2.039-8.926
		c0.085-0.265,0.317-0.636,0.544-0.685c1.422-0.311,2.25-1.31,3.095-2.313c0.055-0.066,0.185-0.078,0.282-0.106
		c0.791-0.224,0.933-0.823,0.935-1.501c0.002-0.391,0.025-0.785-0.007-1.173c-0.154-1.825-0.381-3.621-1.94-4.945
		c-0.212-0.18-0.377-0.493-0.417-0.764c-0.179-1.212-1.035-1.952-2.034-2.433c-2.354-1.132-4.419-2.585-6.053-4.532
		c-0.805,0.208-1.787,0.78-2.261,0.514c-0.862-0.485-1.603,0.501-2.365-0.165c0.233-0.597,0.595-1.056,1.315-1.238
		c1.187-0.301,1.674-1.327,2.678-2.049c0.33-0.238,0.716-1.059,1.159-1.21c0.138,0.418,0.223,0.675,0.336,1.015
		c0.529-0.33,0.971-0.819,1.461-0.87c1.307-0.137,2.043-1.002,2.878-1.772c0.185-0.17,0.337-0.384,0.546-0.518
		c0.495-0.317,1.738,0.431,2.338,0.833c0.38,0.254,0.551,0.886,0.677,1.381c0.153,0.603,0.087,1.258,0.245,1.858
		c0.343,1.3,0.763,2.582,1.164,3.868c0.255,0.817,0.309,1.814,0.84,2.408c1.83,2.047,2.592,4.881,5.106,6.412
		c0.154,0.094,0.248,0.315,0.319,0.495c0.55,1.402,1.606,2.34,2.943,3.031c0.719,0.372,1.61,0.609,2.104,1.168
		c0.756,0.856,1.669,0.801,2.609,0.859c1.42,0.087,3.466-1.194,3.71-2.525c0.324-1.764,0.684-3.544-0.106-5.342
		c-0.611-1.392-1.004-2.875-1.468-4.325c-0.489-1.527-1.366-2.946-1.391-4.603c-1.092-1.209-0.361-2.567-0.175-3.792
		c0.225-1.479,0.926-2.886,1.353-4.343c0.842-2.873,1.624-5.763,2.463-8.637c0.119-0.407,0.419-1.089,0.64-1.091
		c1.155-0.008,1.483-1.087,2.312-1.481c0.666-0.317,1.238-0.773,1.832-1.202c0.952-0.688,2.144-1.519,3.44-0.549
		c1.234,0.923,2.609,0.4,3.622-0.011c2.834-1.15,3.954-4.13,2.703-6.892c-0.719-1.585-0.838-3.241-1.081-4.877
		c-0.224-1.505-0.69-2.726-2.114-3.526c-0.366-0.206-0.619-0.619-0.888-0.964c-0.993-1.271-1.724-2.793-3.523-3.27
		c-0.276-0.073-0.507-0.309-0.758-0.472c-1.002-0.652-2.008-1.299-3.004-1.96c-0.417-0.277-0.817-0.578-1.218-0.876
		c-1.768-1.312-3.531-2.628-5.304-3.933c-0.109-0.08-0.288-0.073-0.512-0.124c-0.246,0.665-0.487,1.319-0.789,2.136
		c-0.689-0.179-1.44-0.292-2.115-0.574c-0.589-0.246-1.058-0.241-1.562,0.111c-0.88,0.614-1.899,0.669-2.932,0.642
		c-0.453-0.012-0.905-0.05-1.046-0.059c-0.768,0.583-1.304,0.98-1.827,1.393c-0.19,0.151-0.46,0.321-0.498,0.518
		c-0.111,0.574-0.558,0.632-1,0.75c-1.422,0.381-2.835,0.797-4.265,1.15c-4.093,1.012-7.972,2.697-12.184,3.373
		c-2.239,0.36-4.388,1.229-6.583,1.848c-5.031,1.419-10.049,2.888-15.107,4.215c-3.093,0.811-6.25,1.396-9.422,2.092
		C79.747,50.481,79.759,50.738,79.773,51.033z M63.08,165.611c1.185-3.721,4.521-5.072,7.79-6.743
		C70.14,161.726,65.457,165.697,63.08,165.611z M98.268,132.978c-0.76,0.276-1.471,0.456-1.471,0.456s-15.071,2.637-15.448,1.884
		c-0.128-0.257-0.21-0.632-0.266-1.012c-0.172,0.06-0.342,0.121-0.515,0.182c-0.376-0.814-0.715-1.545-1.091-2.356
		c0.174-0.085,0.348-0.162,0.522-0.238c-0.544-0.487-0.606-0.709,0.848-1.222c2.135-0.754,8.792-2.135,10.55-2.512
		c1.758-0.377,9.043-1.256,9.043-1.256s-0.001,0.91-0.068,2.056c0.025-0.005,0.051-0.01,0.077-0.015
		c0.115-0.022,0.263,0.12,0.486,0.231c-0.028,0.443-0.056,0.906-0.092,1.482c-0.18-0.02-0.345-0.038-0.556-0.062
		c0.003,0.403,0.017,0.697-0.032,0.94c0.231,0.643,0.459,1.275,0.686,1.906C100.041,133.285,99.155,133.132,98.268,132.978z
		 M103.062,111.509c-0.087,0.061,0.002,0.36,0.016,0.549c0.046,0.671,0.089,1.343,0.145,2.013c0.038,0.45-1.013,0.675-0.341,1.195
		c0.705,0.546-0.289,0.728-0.177,1.217c0.207,0.904,0.15,1.866,0.171,2.805c0.008,0.37-0.069,0.742-0.132,1.356
		c-1.171-0.32-2.165-0.618-3.174-0.861c-0.769-0.186-1.555-0.303-2.392-0.462c0.105-0.303,0.21-0.608,0.378-1.095
		c-0.647-0.138-1.225-0.392-1.778-0.35c-1.092,0.081-2.205-0.488-3.289,0.131c-0.19,0.108-0.818-0.071-0.835-0.177
		c-0.189-1.194-1.3-0.846-2-1.152c-0.618-0.27-0.602,0.797-1.272,0.554c-0.1,0.902-0.86,0.486-0.983,1.604
		c-1.959-0.484-3.484-0.03-4.917,0.803c-0.762,0.444-1.5,0.927-2.26,1.375c-0.254,0.15-0.544,0.244-0.833,0.371
		c0.055-0.784,0.186-1.506,0.142-2.217c-0.141-2.298,1.051-3.224,3.162-3.878c1.58-0.49,3.237-0.799,4.89-1.097
		c1.925-0.348,4.019-0.48,5.722-1.644c0.904-0.618,1.956-0.705,2.911-0.476c1.283,0.308,1.978-0.402,2.782-1.043
		c0.176-0.141,0.443-0.429,0.524-0.388c0.774,0.395,1.101-0.227,1.564-0.57c0.641-0.475,1.301-0.926,2.254-1.6
		c-0.086,0.676-0.141,1.059-0.18,1.442c-0.027,0.268-0.153,0.651-0.021,0.784C103.494,111.056,103.446,111.24,103.062,111.509z
		 M103.802,97.124c-0.114,3.084-0.352,6.163-0.542,9.244c-0.009,0.14-0.05,0.277-0.105,0.564c-0.292-0.19-0.596-0.285-0.717-0.484
		c-0.471-0.78-0.844-1.618-1.341-2.382c-0.186-0.285-0.609-0.599-0.929-0.604c-2.651-0.042-5.046-0.739-7.145-2.456
		c-0.148,0.154-0.276,0.287-0.404,0.422c-0.101,0.107-0.201,0.217-0.335,0.362c-0.649-0.31-1.213-0.776-2.029-0.104
		c-0.414,0.341-1.384-0.036-1.535,1.045c-1.152-0.932-2.02-0.383-2.825,0.232c-1.392,1.064-2.813,2.077-4.422,2.818
		c-0.314,0.145-0.659,0.228-0.984,0.338c-0.819-1.218-1.464-2.497-2.417-3.508c-0.963-1.022-2.23-1.78-3.529-2.78
		c1.471-1.009,2.908-1.663,4.45-2.128c2.079-0.626,4.16-1.249,6.24-1.872c0.39-0.117,0.775-0.281,1.175-0.331
		c2.537-0.316,4.92-1.22,7.395-1.774c0.739-0.165,1.441-0.481,2.173-0.681c2.443-0.668,4.893-1.315,7.361-1.976
		C104.49,93.129,103.875,95.15,103.802,97.124z M105.688,81.666c-0.797,0.258-1.677,0.368-2.522,0.379
		c-1.348,0.019-2.569,0.22-3.754,0.952c-0.904,0.559-2.018,0.802-3.078,1.071c3.362-2.882,7.537-3.36,11.762-3.58
		C107.297,80.89,106.533,81.392,105.688,81.666z M122.498,53.67c3.298-1.236,6.603-1.547,9.762-2.584
		c0.386,1.395-0.062,2.579-0.26,3.765c-0.519,3.096-1.072,6.187-1.666,9.271c-0.334,1.732-0.779,3.444-1.164,5.168
		c-0.11,0.491-0.192,1.059-0.817,1.103c-0.693,0.048-1.409-0.017-2.09-0.149c-0.137-0.027-4.438-0.623-4.349-0.877
		c0.228-0.642,0.511-1.295,0.92-1.841c1.172-1.562,1.483-3.345,1.723-5.196c0.24-1.849-0.757-3.155-1.874-4.386
		c-1.03-1.135-0.155-1.816-1.272-2.88C121.127,54.792,122.939,54.171,122.498,53.67z" style="fill: rgb(255, 255, 255);"></path>
</g>
</svg>
